<svg version="1.0" viewBox="0 0 512.000000 512.000000" preserveAspectRatio="xMidYMid meet" xmlns="http://www.w3.org/2000/svg">
  <g transform="translate(0.000000,512.000000) scale(0.100000,-0.100000)" fill="#000000" stroke="none">
    <path d="M2831 5038 c-60 -31 -83 -66 -89 -130 -9 -112 44 -169 179 -193 448 -79 843 -287 1161 -611 208 -211 352 -430 462 -700 247 -604 194 -1318 -137 -1876 -98 -164 -172 -261 -302 -396 -187 -195 -352 -318 -577 -433 -216 -110 -450 -183 -683 -214 -152 -20 -432 -20 -577 1 -369 51 -715 197 -1018 429 -119 92 -333 311 -414 424 -191 267 -311 541 -375 854 -29 145 -44 177 -94 207 -98 60 -220 16 -251 -89 -12 -43 -12 -59 4 -147 129 -713 557 -1325 1182 -1696 289 -170 652 -292 980 -327 125 -14 431 -14 556 0 409 44 853 216 1182 459 548 404 892 978 997 1660 24 161 24 529 0 690 -45 296 -125 542 -257 797 -124 240 -259 423 -456 619 -328 327 -748 558 -1196 658 -177 40 -224 42 -277 14z"/>
    <path d="M1110 4843 c-37 -14 -74 -49 -91 -87 -17 -37 -19 -70 -19 -318 l0 -278 -282 0 c-275 0 -284 -1 -323 -23 -107 -60 -111 -217 -8 -287 l36 -25 288 -3 288 -3 3 -287 c3 -276 4 -288 25 -322 52 -83 170 -105 248 -45 62 47 65 62 65 375 l0 280 278 0 c268 0 279 1 322 23 119 60 127 208 16 291 -26 20 -43 21 -322 24 l-294 3 0 288 c0 283 0 289 -23 322 -36 54 -82 79 -141 78 -28 0 -58 -3 -66 -6z"/>
    <path d="M3599 3557 c-18 -12 -44 -38 -57 -57 -20 -30 -23 -44 -20 -95 4 -53 11 -70 62 -148 64 -98 105 -127 178 -127 115 1 198 120 157 227 -5 15 -33 63 -61 106 -59 90 -99 117 -176 117 -34 0 -59 -7 -83 -23z"/>
    <path d="M3845 2419 c-54 -15 -89 -65 -129 -183 -82 -241 -204 -420 -388 -570 -117 -96 -233 -160 -386 -213 -165 -58 -202 -92 -202 -188 0 -61 25 -111 69 -140 59 -38 98 -40 197 -10 489 149 868 517 1029 999 19 57 35 123 35 147 -1 114 -111 192 -225 158z"/>
  </g>
</svg>