<svg id="Layer_1" data-name="Layer 1" xmlns="http://www.w3.org/2000/svg" viewBox="0 0 190.09 200.32"><path id="path26" d="M158.39,188.07c-1.55,1.86-3.41,3.72-5,5.58-1.86,1.86-7.44,6.82-22.33,15.51a16.57,16.57,0,0,1-16.12,0c-14.88-9-20.47-13.34-22.33-15.51-1.86-1.86-3.72-4-5.58-6.2A31.41,31.41,0,0,1,75,190.24H68.47a103.15,103.15,0,0,0,12.71,15.51c4.34,4.34,13,10.23,25.43,17.67a31.7,31.7,0,0,0,16.74,4.65,30.67,30.67,0,0,0,16.44-4.65c12.4-7.44,21.08-13.33,25.42-18a95,95,0,0,0,12.41-15.2h-8.68a30.47,30.47,0,0,1-10.55-2.17ZM86.45,62.48a26.81,26.81,0,0,1,2.17-3.1,5.56,5.56,0,0,1,2.17,1.55c2.79,2.17,18.3,17.06,39.07,14.89a41.24,41.24,0,0,1,23.26,4H195.6c-1.86-9.61-5-18.3-10.54-24.5-16.43-18.6-35.66-27.6-58.61-27.6H124c-21.7.62-39.07,5.58-53.33,28.53-7.76,5-13.34,13-17.06,23.57H89.24a33.77,33.77,0,0,0-2.79-17.37" transform="translate(-26.91 -27.75)" style="fill:#5c5d5f"/><path id="path28" d="M124.9,190.55c-9.61,0-21.39-3.72-22-3.72a4.22,4.22,0,1,1,2.48-8.06s11.16,3.41,19.53,3.41,19.23-3.41,19.54-3.41a4.22,4.22,0,0,1,2.48,8.06c-.62,0-12.4,3.72-22,3.72" transform="translate(-26.91 -27.75)" style="fill:#5c5d5f"/><path id="path30" d="M171.73,167.29a10.54,10.54,0,1,1,10.54-10.54A10.46,10.46,0,0,1,171.73,167.29Zm-24.5-23.87a12.1,12.1,0,1,1,12.09-12.1A12.31,12.31,0,0,1,147.23,143.42Zm48.06-55.2H147.23a21.44,21.44,0,0,0-21.4,21.4v33.49a22.19,22.19,0,0,0,8.38,17l21.7,17.06a20.55,20.55,0,0,0,13.34,4.65H195.6a21.44,21.44,0,0,0,21.4-21.4V109.93a21.77,21.77,0,0,0-21.71-21.71Zm-98.61,55.2a12.1,12.1,0,1,1,12.1-12.1A12.31,12.31,0,0,1,96.68,143.42Zm-24.8,23.87a10.54,10.54,0,1,1,10.54-10.54A10.46,10.46,0,0,1,71.88,167.29ZM96.37,88.22H48.31a21.44,21.44,0,0,0-21.4,21.4v50.54a21.44,21.44,0,0,0,21.4,21.4H74.67A21.15,21.15,0,0,0,88,176.91l21.71-17.06a21.29,21.29,0,0,0,8.37-17V109.31c0-11.48-9.61-21.09-21.71-21.09" transform="translate(-26.91 -27.75)" style="fill:#5c5d5f"/></svg>