<svg id="Layer_1" data-name="Layer 1" xmlns="http://www.w3.org/2000/svg" viewBox="0 0 206 234">
<path id="path20" d="M187.82,76.56c-4.54,6.27-13.61,4.32-25.93,4.32-12.09,0-16.42-5.61-17.28-11.66-1.51-9.29,1.95-10.59,9.51-12.53,8.42-2.17,35.21-1.73,37.8,2.37C194.73,63,192.14,70.3,187.82,76.56ZM102.05,69c-.86,6-5.19,11.67-17.28,11.67s-21.39,2.16-25.71-4.32c-4.54-6.27-6.92-13.62-4.54-17.5,2.81-4.33,29.38-4.54,37.81-2.38,7.78,1.94,11.23,3.46,9.72,12.53ZM211.8,52.58c-.86-4.32-3.24-7.35-6.7-8-4.32-1.08-20.95-2.6-35.64-2.6-11.24,0-19.45.87-24,2.81-5.41,2.16-13.4,3.46-21.83,3.46S107.24,47,101.83,44.8C97.3,43.07,89.09,42,77.64,42,63,42,46.53,43.51,42.2,44.59c-3.45.86-6,3.89-6.69,8.21-.87,4.53.21,10.37,3.24,12.31.43.43,1.08,3,1.51,5,1.08,4.54,2.81,11,7.13,16.42s14.26,8,29.6,8a114.36,114.36,0,0,0,17.07-1.08c9.5-1.08,17.28-7.34,21.82-17.5A16.37,16.37,0,0,0,117.17,72c.87-3,1.08-3,1.52-3h9.07c.65,0,1.08.43,2.38,3.89l1.29,3.24C136,86.28,143.75,92.55,153,93.63a162.36,162.36,0,0,0,17.06,1.08h0c15.34,0,25.07-2.81,29.39-8,4.32-5.41,6-11.89,7.13-16.42a23.11,23.11,0,0,1,1.51-5c3.46-2.38,4.32-8.21,3.67-12.75" transform="translate(-21 -8)" style="fill:#5c5d5f"/>
<path id="path22" d="M199.05,37,174.21,12.87c-7.56-7.38-23.55-6.15-29,2.15l-.43.77h0a7.1,7.1,0,0,0,8.42.31h0a5.67,5.67,0,0,1,6.7.31L180,35.62l19,1.38" transform="translate(-21 -8)" style="fill:#5c5d5f"/>
<path id="path24" d="M48,37,72.88,12.87c7.57-7.38,23.55-6.15,29,2.15l.44.77h0a7.11,7.11,0,0,1-8.43.31h0a5.67,5.67,0,0,0-6.7.31L67.05,35.62,48,37" transform="translate(-21 -8)" style="fill:#5c5d5f"/>
<rect y="201" width="206" height="33" style="fill:#5c5d5f"/>
<rect x="16" y="174" width="174" height="28" style="fill:#5c5d5f"/>
<rect x="37" y="90" width="132" height="84" style="fill:#5c5d5f"/>
<rect x="45" y="99" width="116" height="75" style="fill:#fff"/>
<rect x="37" y="182" width="132" height="7" style="fill:#fff"/>
<rect x="26" y="195" width="154" height="7" style="fill:#fff"/>
<rect x="16" y="208" width="174" height="7" style="fill:#fff"/>
<rect x="81" y="118" width="44" height="57" style="fill:#5c5d5f"/>
<rect x="11" y="221" width="184" height="7" style="fill:#fff"/>
<rect x="90" y="127" width="25" height="47" style="fill:#fff"/>
</svg>