<?xml version="1.0" encoding="UTF-8"?>
<svg width="800px" height="800px" viewBox="0 0 24 24" version="1.1" xmlns="http://www.w3.org/2000/svg" xmlns:xlink="http://www.w3.org/1999/xlink">
    <g stroke="none" stroke-width="1" fill="none" fill-rule="evenodd">
        <g transform="translate(2.000000, 2.000000)" fill="#e58825">
            <path d="M10,0 C15.523,0 20,4.477 20,10 C20,15.523 15.523,20 10,20 C4.477,20 0,15.523 0,10 C0,4.477 4.477,0 10,0 Z M10,2 C5.582,2 2,5.582 2,10 C2,14.418 5.582,18 10,18 C14.418,18 18,14.418 18,10 C18,5.582 14.418,2 10,2 Z M10,5 C10.552,5 11,5.448 11,6 L11,9.586 L13.707,12.293 C14.098,12.684 14.098,13.316 13.707,13.707 C13.316,14.098 12.684,14.098 12.293,13.707 L9.293,10.707 C9.105,10.52 9,10.265 9,10 L9,6 C9,5.448 9.448,5 10,5 Z"></path>
        </g>
    </g>
</svg>
