<svg version="1.0" viewBox="0 0 512.000000 512.000000" preserveAspectRatio="xMidYMid meet" xmlns="http://www.w3.org/2000/svg">
  <g transform="translate(0.000000,512.000000) scale(0.100000,-0.100000)" fill="#000000" stroke="none">
    <path d="M4469 4630 c-73 -12 -135 -45 -188 -99 -50 -51 -91 -136 -91 -186 0 -50 -7 -55 -85 -55 -166 0 -265 -109 -265 -293 0 -53 0 -53 -52 -87 -36 -24 -61 -52 -82 -90 l-31 -55 -3 -201 -3 -202 -153 -3 c-145 -4 -154 -5 -193 -31 -71 -47 -74 -64 -71 -346 3 -237 4 -248 25 -278 13 -17 39 -39 59 -49 58 -27 108 -22 222 24 56 22 105 41 107 41 3 0 5 -202 5 -449 l0 -448 -41 -7 c-81 -13 -150 -65 -185 -141 -23 -48 -24 -60 -24 -281 0 -228 0 -231 26 -282 14 -29 42 -66 62 -82 72 -60 75 -60 757 -60 716 0 697 -2 777 80 69 71 78 112 78 345 0 222 -10 273 -67 336 -53 59 -104 81 -195 87 l-78 5 0 172 0 172 50 6 c67 8 164 61 207 113 19 24 44 67 56 96 22 53 22 58 25 858 2 549 -1 821 -8 856 -20 97 -103 175 -201 192 l-42 7 -13 61 c-16 78 -35 115 -90 174 -73 78 -188 117 -295 100z m130 -180 c109 -55 129 -185 42 -271 -86 -87 -216 -67 -271 42 -75 146 83 304 229 229z m-332 -369 c51 -59 140 -107 217 -116 106 -14 245 45 306 130 32 45 83 48 129 9 l31 -26 0 -803 c0 -545 -3 -813 -11 -832 -15 -40 -48 -73 -94 -94 -35 -16 -68 -19 -267 -19 l-228 0 0 698 c0 766 0 761 -60 834 -47 57 -119 88 -207 88 l-73 0 0 64 c0 59 2 66 31 90 27 23 39 26 107 26 l77 0 42 -49z m-118 -317 l31 -26 0 -959 0 -959 -170 0 -170 0 0 959 0 959 31 26 c29 24 37 26 139 26 102 0 110 -2 139 -26z m-479 -718 l0 -144 -117 -47 c-65 -26 -124 -49 -130 -52 -10 -4 -13 38 -13 191 l0 196 130 0 130 0 0 -144z m940 -1051 l0 -175 -130 0 -130 0 0 175 0 175 130 0 130 0 0 -175z m315 -370 c25 -24 25 -25 25 -230 0 -205 0 -206 -25 -230 l-24 -25 -635 0 -634 0 -26 31 c-26 31 -26 31 -26 220 0 193 8 238 42 252 7 3 298 6 646 6 l633 1 24 -25z"/>
    <path d="M1125 4535 c-248 -40 -490 -156 -730 -350 -270 -218 -390 -512 -389 -950 1 -275 57 -418 273 -700 116 -151 190 -338 206 -522 13 -154 -32 -403 -109 -598 -55 -138 -57 -149 -45 -204 13 -58 49 -106 99 -131 38 -19 60 -20 680 -20 689 0 667 -2 717 52 12 13 38 62 57 109 19 47 48 109 65 137 l32 50 50 -34 c48 -32 105 -54 141 -54 50 0 48 24 48 -494 0 -445 2 -484 19 -521 36 -79 91 -104 226 -104 152 -1 202 20 243 99 22 44 22 46 22 526 l0 482 158 4 c174 5 211 14 270 71 101 97 107 258 13 354 -57 60 -102 77 -208 81 l-92 4 36 34 c34 32 35 36 31 89 -4 51 -3 56 29 87 44 43 45 90 2 166 -16 29 -29 63 -27 74 2 13 27 35 68 60 76 46 107 73 126 110 31 60 6 155 -59 227 -50 56 -159 225 -212 329 l-47 93 56 60 c71 76 84 119 63 204 -9 33 -18 68 -22 78 -6 15 0 17 61 17 121 0 213 63 249 169 41 121 -15 254 -129 307 -47 22 -64 24 -213 24 l-163 0 -19 39 c-66 128 -195 257 -348 345 -132 77 -353 139 -683 192 -138 22 -433 27 -545 9z m495 -171 c144 -19 396 -70 475 -96 90 -30 222 -101 292 -158 57 -46 133 -132 133 -151 0 -4 -89 -9 -197 -11 -193 -3 -199 -4 -255 -31 -67 -33 -121 -90 -157 -166 l-26 -56 -3 -982 c-1 -541 -4 -983 -7 -983 -23 0 -181 68 -222 95 -60 40 -78 64 -87 118 -9 46 -40 77 -81 77 -72 0 -99 -58 -70 -156 34 -116 159 -210 386 -289 l76 -26 -54 -82 c-29 -45 -68 -119 -85 -164 l-31 -83 -597 0 c-508 0 -599 2 -610 14 -9 12 -4 33 24 103 162 406 161 828 -1 1120 -19 34 -82 128 -140 210 -119 167 -176 276 -198 378 -19 91 -19 292 0 420 45 296 144 465 375 639 334 252 606 318 1060 260z m1403 -586 c33 -17 46 -39 46 -78 0 -39 -13 -61 -46 -78 -15 -9 -127 -12 -382 -12 -197 0 -367 -3 -376 -6 -46 -18 -45 -6 -45 -978 l0 -915 24 -28 24 -28 378 -3 c370 -3 379 -3 401 -24 32 -30 31 -90 -2 -123 l-24 -25 -421 0 c-399 0 -423 1 -460 20 -21 11 -49 34 -62 52 l-23 33 -3 1038 -2 1039 22 39 c23 41 54 66 97 79 44 14 829 12 854 -2z m-278 -381 c43 -92 43 -110 1 -142 -53 -41 -90 -108 -90 -165 0 -36 11 -70 47 -141 49 -100 159 -274 233 -370 24 -32 44 -61 44 -66 0 -4 -34 -28 -76 -53 -98 -58 -118 -85 -122 -171 -3 -52 1 -77 17 -114 l21 -48 -40 -37 c-42 -39 -51 -72 -29 -112 9 -17 8 -23 -7 -31 -32 -18 -75 -71 -81 -99 l-5 -28 -134 0 -134 0 0 815 0 815 166 0 165 0 24 -53z m-185 -2557 l0 -470 -85 0 -85 0 0 470 0 470 85 0 85 0 0 -470z"/>
    <path d="M1138 4180 c-25 -26 -29 -36 -24 -63 9 -46 37 -69 81 -69 77 0 109 88 51 138 -37 33 -71 30 -108 -6z"/>
    <path d="M774 4009 c-196 -104 -339 -264 -398 -444 -9 -27 -20 -85 -26 -127 -14 -116 7 -158 80 -158 49 0 80 38 80 97 0 189 142 389 346 489 83 41 104 109 46 154 -34 27 -59 25 -128 -11z"/>
  </g>
</svg>