<svg id="Layer_1" data-name="Layer 1" xmlns="http://www.w3.org/2000/svg" viewBox="0 0 223.43 223.43"><path id="path88" d="M202.14,174.65A91.65,91.65,0,0,1,59.61,190.23a90.92,90.92,0,0,1-26.72-64.95c0-50.47,41.2-91.67,92.05-91.67A91.31,91.31,0,0,1,189.89,60.7a104,104,0,0,1,12.62,16c10.39,11.51,17.07,29.32,17.07,49s-7.05,37.49-17.44,49Zm1.48-128.42a110.52,110.52,0,0,0-79.05-32.66A111.8,111.8,0,0,0,45.51,204.34,110.58,110.58,0,0,0,124.57,237h0A111.8,111.8,0,0,0,203.62,46.23" transform="translate(-12.85 -13.57)" style="fill:#5c5d5f"/><path id="path90" d="M174.67,67.75c-22.27,0-40.08,26-40.08,57.53s17.81,57.53,40.08,57.53v0c22.27,0,40.09-26,40.09-57.53,0-15.59-4.46-30.43-12.25-41.2-7.8-10.39-17.45-16.33-27.84-16.33Zm0,125.08h0c-27.46,0-50.11-30.43-50.11-67.55s22.27-67.55,50.11-67.55c13.73,0,26.35,7.05,36,20.42,9.28,12.62,14.11,29.32,14.11,47.13-.37,37.12-22.64,67.55-50.11,67.55" transform="translate(-12.85 -13.57)" style="fill:#5c5d5f"/><path id="path92" d="M169.85,90.39A22.11,22.11,0,0,0,160.2,93c5.93,4.08,8.53,13.73,5.93,23-3,10.4-11.87,16.71-19.3,13.74-.74-.37-1.11-.75-1.85-1.12,1.48,17.45,11.88,31.18,24.87,31.18,13.73,0,25.23-15.59,25.23-34.89s-11.5-34.52-25.23-34.52" transform="translate(-12.85 -13.57)" style="fill:#5c5d5f"/><path id="path94" d="M112.32,190.23l-23-11.13L70,177.62,41.43,190.23l-2.6-5.56,30.06-13.36,22.64,2.22L115.29,185l-3,5.19" transform="translate(-12.85 -13.57)" style="fill:#5c5d5f"/><path id="path96" d="M91.9,178.36l-3.71-4.83,16.7-13,3.72,4.83-16.71,13" transform="translate(-12.85 -13.57)" style="fill:#5c5d5f"/><path id="path98" d="M72.23,175.39l-5.94-2.23,10-26.35,3.34-20.41,5.93,1.11-3.71,21.16-9.65,26.72" transform="translate(-12.85 -13.57)" style="fill:#5c5d5f"/><path id="path100" d="M79.66,150.52l-.38-6.31,21.53-1.48.37,6.31-21.52,1.48" transform="translate(-12.85 -13.57)" style="fill:#5c5d5f"/><path id="path102" d="M29.18,119.34l-1.11-5.93,13-2.23L58.13,94.11H84.85l14.85,8.16-3,5.57-13.36-7.42H60.73L44,117.12l-14.84,2.22" transform="translate(-12.85 -13.57)" style="fill:#5c5d5f"/><path id="path104" d="M86.71,98.93l-4.46-4.45L97.47,78.89l4.45,4.45L86.71,98.93" transform="translate(-12.85 -13.57)" style="fill:#5c5d5f"/><path id="path106" d="M63,96.7H56.64V77.77l17.08-9.65,3,5.57L62.58,81.86V96.7" transform="translate(-12.85 -13.57)" style="fill:#5c5d5f"/></svg>