<svg version="1.0" viewBox="0 0 512.000000 512.000000" preserveAspectRatio="xMidYMid meet" xmlns="http://www.w3.org/2000/svg">
  <g transform="translate(0.000000,512.000000) scale(0.100000,-0.100000)" fill="#000000" stroke="none">
    <path d="M2400 5094 c-378 -33 -667 -111 -974 -266 -237 -119 -428 -254 -618 -437 -418 -402 -671 -891 -760 -1466 -28 -185 -30 -521 -4 -700 34 -239 101 -478 188 -680 127 -292 295 -534 537 -776 407 -408 876 -641 1456 -725 164 -24 504 -24 670 0 238 34 478 100 680 188 292 127 534 295 776 537 301 302 488 602 618 991 88 263 125 498 125 800 0 307 -37 538 -128 807 -133 393 -316 686 -615 984 -402 403 -865 637 -1424 720 -126 18 -427 32 -527 23z m505 -144 c39 -6 77 -13 85 -16 26 -9 -10 -24 -60 -24 -146 -1 -350 -105 -350 -178 0 -63 67 -81 122 -33 30 26 118 77 118 68 0 -2 -5 -18 -11 -36 -15 -42 -4 -80 26 -91 36 -14 71 3 91 45 46 98 176 165 320 165 91 0 202 -38 394 -136 601 -304 1050 -844 1240 -1489 26 -89 60 -245 53 -245 -3 0 -44 16 -92 35 -133 53 -240 76 -387 82 l-130 6 -22 33 c-42 65 -163 114 -283 114 -68 0 -101 -21 -101 -65 0 -45 31 -63 108 -64 67 0 134 -16 134 -30 0 -5 -19 -11 -42 -15 -128 -20 -187 -58 -174 -111 11 -44 44 -50 133 -27 73 20 242 46 250 39 1 -2 -11 -29 -28 -61 -40 -74 -52 -175 -24 -206 36 -40 105 -14 105 39 0 102 74 185 181 205 48 9 187 -32 305 -89 l91 -44 7 -47 c3 -26 6 -125 6 -220 0 -473 -128 -909 -383 -1303 -211 -327 -523 -618 -863 -806 l-52 -29 -68 33 c-53 26 -92 57 -169 135 -129 130 -140 152 -140 281 0 91 3 106 31 165 18 39 54 89 87 123 32 32 57 66 57 75 0 34 -29 62 -64 62 -27 0 -43 -11 -94 -64 -60 -62 -132 -187 -132 -228 0 -10 -4 -18 -8 -18 -10 0 -19 17 -83 175 -27 65 -55 123 -62 127 -37 24 -97 -6 -97 -47 0 -32 92 -252 156 -374 109 -207 245 -378 372 -468 l65 -47 -44 -19 c-159 -68 -413 -134 -622 -162 -137 -17 -413 -20 -555 -4 -292 31 -575 117 -844 256 -194 100 -253 144 -314 236 -59 88 -124 241 -124 292 0 47 31 126 68 173 17 21 59 53 92 71 72 39 91 68 67 105 -9 13 -26 27 -37 31 -32 10 -129 -40 -186 -96 l-51 -51 -7 32 c-3 18 -6 75 -6 126 0 81 -3 97 -20 114 -28 28 -64 25 -90 -8 -21 -25 -22 -34 -15 -137 11 -192 39 -345 90 -500 10 -30 -201 188 -271 280 -283 372 -447 781 -495 1234 -17 164 -7 483 21 640 127 723 556 1335 1190 1699 287 164 593 262 960 306 68 8 506 -2 575 -14z"/>
    <path d="M1715 4443 c-419 -54 -778 -261 -1020 -588 -118 -159 -206 -348 -251 -542 -31 -132 -43 -387 -25 -527 44 -326 188 -615 426 -851 393 -390 967 -522 1500 -344 482 161 844 560 963 1062 24 103 27 130 27 322 0 166 -4 228 -18 295 -132 619 -612 1073 -1230 1164 -94 14 -295 19 -372 9z m415 -143 c272 -52 526 -192 718 -395 503 -532 493 -1354 -23 -1870 -204 -205 -449 -331 -735 -381 -142 -24 -389 -15 -529 20 -510 129 -888 519 -1002 1037 -31 136 -33 388 -6 518 58 269 170 487 349 677 316 333 776 481 1228 394z"/>
    <path d="M2122 3990 c-23 -5 -64 -21 -91 -35 l-48 -26 -59 20 c-100 33 -188 44 -318 38 -143 -7 -209 -23 -333 -82 -464 -224 -633 -794 -366 -1237 286 -477 957 -559 1355 -166 240 236 321 590 210 909 l-20 56 31 62 c83 168 -5 386 -181 446 -55 19 -129 25 -180 15z m-361 -130 c30 -5 73 -15 95 -21 l41 -11 -19 -61 c-56 -177 42 -358 222 -411 70 -21 122 -20 190 4 30 10 57 17 61 14 20 -12 44 -156 43 -259 -1 -121 -18 -199 -65 -303 -214 -473 -837 -585 -1204 -217 -383 382 -249 1018 257 1222 114 46 267 64 379 43z m520 -13 c146 -77 144 -283 -4 -358 -31 -17 -54 -20 -102 -17 -68 4 -107 26 -153 85 -24 33 -27 45 -27 114 0 71 2 80 31 116 64 80 169 105 255 60z"/>
  </g>
</svg>