<svg id="Layer_1" data-name="Layer 1" xmlns="http://www.w3.org/2000/svg" viewBox="0 0 228.69 233.96">
<path d="M132,7s25.22,0,16.82,23.55c0,0,15.13,3.36,25.22,25.22,3.36,8.41,5,18.5,3.36,33.63,0,0,6.73,3.36-1.68,20.18-1.68,5-3.36,11.77-5,11.77s-1.69,0-5.05,5-6.72,6.73-6.72,10.09-1.69,21.86,0,21.86S180,165,180,165s26,6.84,31.08,10.2,28.59,13.45,28.59,60.54V241H11s5-52.35,25.22-62.44,65.58-20.18,65.58-20.18,5-1.68,5-3.36,1.68-13.45,1.68-13.45-8.41-10.09-10.09-13.45L95,118s-3.37,1.68-5.05-3.37S85,96.17,86.63,92.8A1.65,1.65,0,0,0,85,91.12S83.27,81,85,74.31c1.68-8.41,1.68-23.55,20.18-38.68,1.68-1.68,8.4-5,8.4-5S101.1,10.41,131.7,7" transform="translate(-10.96 -7.04)" style="fill:#5c5d5f"/>
<path d="M89,86.3S109.79,76.21,116.73,56c0,0,25.14,22.7,56.34,32.79" transform="translate(-10.96 -7.04)" style="fill:none;stroke:#fff;stroke-miterlimit:10"/>
<circle cx="100.05" cy="90.18" r="13.45" style="fill:none;stroke:#fff;stroke-miterlimit:10"/>
<circle cx="138.73" cy="90.18" r="13.45" style="fill:none;stroke:#fff;stroke-miterlimit:10"/>
<polyline points="70.63 161.65 68.94 193.92 82.4 195.39 70.63 205.66 84.08 230.59" style="fill:none;stroke:#fff;stroke-miterlimit:10;stroke-width:2px"/>
<polyline points="174.88 163.33 178.25 195.36 164.79 196.96 176.56 209.77 166.47 230.59" style="fill:none;stroke:#fff;stroke-miterlimit:10;stroke-width:2px"/>
<polyline points="95.85 153.24 101.73 193.6 109.3 230.59" style="fill:none;stroke:#fff;stroke-miterlimit:10;stroke-width:2px"/>
<path d="M164,163.65s-1.68,28.95-5,41.82-7.57,24.75-8.41,32.17" transform="translate(-10.96 -7.04)" style="fill:none;stroke:#fff;stroke-miterlimit:10;stroke-width:2px"/>
<line x1="113.51" y1="90.18" x2="125.28" y2="90.18" style="fill:none;stroke:#fff;stroke-miterlimit:10;stroke-width:2px"/>
<path d="M16,237.64H234.24s2-18.5-4.68-31.95-6.73-22.89-40.36-34.15c-26.9-7.38-35-9.57-35-9.57s-2-20.18,1.39-30.27c5.05-6.73,8.41-11.77,8.41-11.77s4.2-2.06,5-3.37c2.4-3.69,6.73-13.86,6.73-21.86-1.68-5-2.92-3.15-3.36-5-.52-2.2.77-5.93,1.68-18.57,0-3.88-1.68-15.06-11.77-25.15-3.36-3.36-8.74-5.89-13.45-10.09-6.73-5.05-3.37-8.41-3.37-8.41s5.05-15.13-11.91-15.74c-9.95.61-11.63,2.29-11.63,2.29s-10.09,3.36-5,13.45c.55,1.11,1.68,3.36,0,5.05s-10.09,3.36-17.33,15.35C95,54.35,88.31,77.89,88.31,81.25S90,91.93,90,91.93a77.2,77.2,0,0,0,3.36,21.27c1.17.78,5.05.53,5.05,3.36,0,1.69,2.56,7.87,5,11.78a63.59,63.59,0,0,0,10.09,11.77s-1.68,11.77-1.68,16.81-13.45,6.73-13.45,6.73-56.2,17.52-58.86,20.18c-3.36,3.36-11.77,13.45-15.13,21.86C21.84,212.12,16,237.64,16,237.64Z" transform="translate(-10.96 -7.04)" style="fill:none;stroke:#fff;stroke-miterlimit:10;stroke-width:2px"/>
</svg>