<?xml version="1.0" encoding="UTF-8"?>
<svg width="800px" height="800px" viewBox="0 0 24 24" version="1.1" xmlns="http://www.w3.org/2000/svg" xmlns:xlink="http://www.w3.org/1999/xlink">
    <g stroke="none" stroke-width="1" fill="none" fill-rule="evenodd">
        <g transform="translate(2.000000, 6.000000)" fill="#e58825">
            <path d="M19.7796,5.0005 C19.9246,5.5125 20,6.0465 20,6.5945 C20,9.0225 18.417,11.0775 16.2422,11.7535 C15.6132,11.9445 14.9402,12.0445 14.2422,12.0445 L5.7578,12.0445 C3.0714,12.0445 0.8952,10.1755 0.2204,7.6905 C0.0754,7.1785 0,6.6445 0,6.0965 C0,3.6685 1.583,1.6135 3.7578,0.9375 C4.3868,0.7465 5.0598,0.6465 5.7578,0.6465 L14.2422,0.6465 C16.9286,0.6465 19.1048,2.5155 19.7796,5.0005 Z M14.2422,2.6465 L5.7578,2.6465 C5.2742,2.6465 4.8118,2.7125 4.3798,2.8345 C2.9514,3.2905 1.9286,4.5755 1.9286,6.0965 C1.9286,6.4825 1.9814,6.8585 2.0798,7.2165 C2.5338,8.8645 3.9952,10.0445 5.7578,10.0445 L14.2422,10.0445 C14.7258,10.0445 15.1882,9.9785 15.6202,9.8565 C17.0486,9.4005 18.0714,8.1155 18.0714,6.5945 C18.0714,6.2085 18.0186,5.8325 17.9202,5.4745 C17.4662,3.8265 16.0048,2.6465 14.2422,2.6465 Z"></path>
        </g>
    </g>
</svg>
