<svg id="Layer_1" data-name="Layer 1" xmlns="http://www.w3.org/2000/svg" viewBox="0 0 228.25 171.39"><path id="path76" d="M231.79,129.48c5.07,22.31-10.82,49-37.18,49H55.33c-26,0-42.25-27-37.18-49-5.75,6.76-8.11,18.59-5.07,37.86,3.72,24.34,26.37,43.27,50.71,43.27H186.16c24.33,0,47-18.93,50.7-43.27,3-19.27.68-30.76-5.07-37.86" transform="translate(-11.75 -39.22)" style="fill:#5c5d5f"/><path id="path78" d="M239.57,81.81c-3.72-13.18-7.44-42.59-46.65-42.59H60.07c-39.21,0-42.93,29.41-46.65,42.59-3,10.82,7.44,20.29,24.67,24a55.24,55.24,0,0,1,7.78-3.71c-10.82-3-18.93-8.12-21.3-12.51-1-2.37-.67-3.72,0-4.73,2.71-4.74,13.86-9.47,31.44-9.47H197.65c17.58,0,28.73,5.07,31.44,9.47.67,1,1,2.36,0,4.73-2.37,4.73-10.48,9.46-21.3,12.51a80.59,80.59,0,0,1,7.77,3.71c16.57-3.71,26.71-13.52,24-24" transform="translate(-11.75 -39.22)" style="fill:#5c5d5f"/><path id="path80" d="M192.24,145.7c-2.7,7.1-13.52,4.73-26.37,4.73-13.18,0-18.25-6.42-19.6-12.5-2.37-9.13,1-10.14,8.11-12.17,7.77-2,33.47-1.69,37.18,2.36,3.72,3.72,3.38,10.82.68,17.58ZM104,137.93c-1.69,6.42-6.76,12.5-19.6,12.5-13.19,0-23.67,2.37-26.37-4.73-2.71-6.76-3-13.86.68-17.58,3.71-4.05,29.4-4.05,37.18-2.36,7.1,1.69,10.14,3,8.11,12.17Zm104.12-20.28c-6.43-1.36-51.72-4.06-62.54,0-6.08,2.36-12.17,3.38-21,3-8.45.34-14.87-.68-21-3-10.81-4.06-56.11-1.36-62.53,0S34,129.48,36.4,131.5c6.09,3.05,3.38,13.53,7.44,23.33,4.4,10.48,33.13,8.79,47.33,7.1,13.86-1.69,20.62-13.52,22.65-18.26,2-4.39,2.7-9.12,6.76-9.12H128c4.06,0,4.4,4.73,6.76,9.12,2.37,4.74,8.79,16.57,22.65,18.26,14.2,1.69,42.93,3.38,47.33-7.1,4.05-9.8,1.69-20.28,7.43-23.33,3-2,2.37-12.5-4.05-13.85" transform="translate(-11.75 -39.22)" style="fill:#5c5d5f"/></svg>