<svg version="1.0" viewBox="0 0 512.000000 512.000000" preserveAspectRatio="xMidYMid meet" xmlns="http://www.w3.org/2000/svg">
  <g transform="translate(0.000000,512.000000) scale(0.100000,-0.100000)" fill="#000000" stroke="none">
    <path d="M1232 5109 c-148 -29 -279 -146 -322 -288 -20 -65 -20 -87 -18 -1621 l3 -1555 32 -68 c42 -89 116 -166 201 -208 l67 -34 400 -5 400 -5 5 -215 c5 -211 6 -216 33 -268 54 -103 141 -164 261 -184 l66 -11 0 -294 0 -295 30 -30 c26 -25 36 -29 63 -24 67 13 67 15 67 345 l0 297 73 12 c167 28 288 159 291 314 1 51 -2 62 -23 79 -13 10 -38 19 -56 19 -49 0 -74 -26 -84 -86 -10 -66 -40 -114 -89 -142 -36 -20 -54 -22 -185 -22 -152 0 -186 7 -226 43 -55 51 -61 82 -61 340 l0 238 -25 24 -24 25 -419 0 c-460 0 -473 1 -545 61 -21 17 -50 54 -65 83 l-27 51 -3 1514 c-3 1682 -7 1577 65 1660 20 24 59 54 87 67 l51 24 1181 0 c1328 0 1237 5 1318 -76 65 -65 76 -107 76 -296 0 -199 11 -229 88 -228 31 1 54 16 70 47 15 28 16 288 1 369 -32 175 -168 311 -343 343 -72 13 -2347 14 -2414 0z"/>
    <path d="M1573 4686 c-94 -30 -178 -109 -213 -202 -19 -53 -20 -76 -20 -693 0 -703 -2 -682 64 -771 37 -51 95 -94 158 -118 38 -15 113 -17 633 -20 325 -2 600 0 613 3 58 14 82 88 43 136 l-19 24 -609 5 c-436 4 -614 8 -628 17 -31 18 -73 65 -84 96 -7 19 -11 229 -11 630 0 684 -2 659 81 714 l43 28 793 3 c532 2 807 -1 833 -8 75 -20 122 -77 133 -160 6 -48 42 -90 77 -90 63 0 97 50 85 127 -16 113 -90 213 -194 262 l-56 26 -840 2 c-671 1 -848 -1 -882 -11z"/>
    <path d="M3517 4073 c-27 -9 -71 -36 -97 -60 -51 -46 -291 -384 -336 -472 -115 -229 -66 -510 120 -696 184 -183 456 -226 696 -109 93 46 209 159 258 251 88 167 95 370 17 541 -36 79 -303 458 -347 494 -83 65 -206 86 -311 51z m160 -154 c15 -6 39 -20 52 -32 34 -32 278 -388 301 -439 50 -114 46 -247 -10 -363 -39 -81 -82 -131 -154 -177 -78 -50 -143 -69 -241 -69 -198 0 -365 125 -420 315 -25 87 -17 212 18 289 35 77 279 430 315 455 44 32 92 39 139 21z"/>
    <path d="M2210 2530 c-206 -43 -324 -250 -256 -448 24 -70 108 -161 178 -193 50 -23 66 -24 279 -27 225 -3 227 -3 252 20 34 30 39 77 13 114 -13 17 -31 19 -233 24 -243 6 -259 10 -309 76 -59 76 -39 188 43 244 36 25 41 25 257 28 214 2 222 2 261 -21 50 -29 82 -76 91 -135 9 -62 36 -92 85 -92 57 0 83 37 76 111 -10 117 -88 224 -200 275 -61 28 -64 28 -277 31 -118 1 -235 -2 -260 -7z"/>
    <path d="M3894 2473 c-12 -2 -30 -13 -40 -25 -18 -19 -19 -48 -24 -397 -5 -361 -6 -378 -27 -416 -25 -47 -74 -95 -123 -121 -33 -18 -74 -19 -598 -24 l-564 -5 -19 -24 c-27 -33 -25 -82 4 -110 l24 -22 579 3 579 3 67 32 c125 59 215 180 238 319 15 90 13 713 -3 743 -13 27 -61 49 -93 44z"/>
  </g>
</svg>