<?xml version="1.0" encoding="UTF-8"?>
<svg width="800px" height="800px" viewBox="0 0 24 24" version="1.1" xmlns="http://www.w3.org/2000/svg" xmlns:xlink="http://www.w3.org/1999/xlink">
    <g stroke="none" stroke-width="1" fill="none" fill-rule="evenodd">
        <g transform="translate(2.000000, 2.000000)" fill="#e58825">
            <path d="M10,0 C15.523,0 20,4.477 20,10 C20,15.523 15.523,20 10,20 C4.477,20 0,15.523 0,10 C0,4.477 4.477,0 10,0 Z M10,2 C5.582,2 2,5.582 2,10 C2,14.418 5.582,18 10,18 C14.418,18 18,14.418 18,10 C18,5.582 14.418,2 10,2 Z M13.5,7 C14.328,7 15,7.672 15,8.5 C15,9.328 14.328,10 13.5,10 C12.672,10 12,9.328 12,8.5 C12,7.672 12.672,7 13.5,7 Z M6.5,7 C7.328,7 8,7.672 8,8.5 C8,9.328 7.328,10 6.5,10 C5.672,10 5,9.328 5,8.5 C5,7.672 5.672,7 6.5,7 Z M10,11 C12.5,11 14.5,13 14.5,13 C14.5,13 12.5,15 10,15 C7.5,15 5.5,13 5.5,13 C5.5,13 7.5,11 10,11 Z"></path>
        </g>
    </g>
</svg>
