<svg version="1.0" viewBox="0 0 512.000000 512.000000" preserveAspectRatio="xMidYMid meet" xmlns="http://www.w3.org/2000/svg">
  <g transform="translate(0.000000,512.000000) scale(0.100000,-0.100000)" fill="#000000" stroke="none">
    <path d="M240 4950 l0 -80 480 0 480 0 0 80 0 80 -480 0 -480 0 0 -80z"/>
    <path d="M2410 5008 c-26 -14 -53 -37 -65 -58 -19 -34 -20 -54 -23 -622 l-3 -588 -62 0 c-85 0 -287 -26 -432 -55 -576 -116 -1083 -383 -1530 -806 -55 -53 -117 -105 -138 -118 -62 -38 -72 -67 -72 -211 0 -142 11 -174 75 -213 19 -11 80 -63 135 -116 447 -423 953 -689 1530 -806 138 -28 352 -55 437 -55 l58 0 0 -86 0 -86 -92 6 c-512 37 -999 186 -1421 436 -47 27 -89 50 -94 50 -4 0 -142 -134 -305 -297 l-298 -298 52 -52 53 -53 257 257 257 256 68 -37 c37 -20 105 -55 151 -76 l82 -39 -105 -211 c-58 -115 -105 -213 -105 -218 0 -4 29 -22 65 -40 l65 -32 110 220 110 219 67 -26 c38 -14 102 -37 143 -50 41 -13 76 -26 78 -27 1 -2 -36 -170 -83 -374 -47 -204 -85 -375 -85 -381 0 -10 42 -24 111 -36 l35 -7 85 367 c46 202 87 371 90 377 5 8 50 1 345 -57 l20 -4 -26 -210 -26 -209 60 -7 c34 -4 68 -8 77 -11 13 -4 19 27 42 207 14 116 27 212 29 213 2 1 45 0 96 -2 l92 -4 0 -416 c0 -400 1 -417 21 -458 12 -26 36 -53 57 -66 33 -21 49 -23 162 -23 142 0 173 11 213 75 22 35 22 39 25 621 l3 586 112 7 c446 27 932 178 1327 411 l95 57 295 1 c284 2 296 3 330 24 19 12 44 37 55 55 19 32 20 51 20 638 0 587 -1 606 -20 638 -11 18 -36 43 -55 55 -34 21 -46 22 -330 24 l-295 1 -95 57 c-307 181 -660 311 -1020 374 -127 22 -295 41 -371 41 l-49 0 0 85 c0 99 -19 90 165 74 471 -40 947 -192 1348 -429 47 -27 89 -50 94 -50 4 0 142 134 305 297 l298 298 -52 52 -53 53 -257 -257 -257 -256 -68 37 c-37 20 -105 55 -151 76 l-82 39 105 211 c58 115 105 213 105 218 0 4 -29 22 -65 40 l-65 32 -109 -219 -110 -218 -143 50 c-79 28 -144 52 -146 53 -2 1 36 168 83 372 47 204 85 375 85 381 0 10 -49 27 -111 37 l-35 6 -85 -367 c-46 -202 -87 -371 -90 -377 -5 -8 -50 -1 -345 57 l-20 4 26 210 26 209 -60 7 c-34 4 -68 8 -77 11 -13 4 -19 -27 -42 -207 -14 -116 -27 -212 -29 -213 -2 -1 -44 0 -95 2 l-92 4 -3 426 c-3 485 -1 473 -87 519 -38 20 -58 23 -150 23 -91 0 -113 -3 -151 -22z m230 -938 l0 -800 -80 0 -80 0 0 800 0 800 80 0 80 0 0 -800z m-320 -594 c0 -83 0 -84 -27 -90 -61 -15 -215 -99 -285 -155 -40 -32 -97 -89 -127 -125 -56 -69 -131 -205 -152 -275 l-12 -41 -84 0 c-66 0 -83 3 -83 15 0 26 59 176 95 242 123 224 320 393 565 484 113 42 110 44 110 -55z m591 54 c212 -77 388 -215 513 -403 89 -133 150 -294 171 -449 l6 -48 -83 0 -83 0 -18 91 c-35 182 -119 332 -260 465 -93 88 -176 141 -284 182 l-73 27 0 83 c0 65 3 82 15 82 8 0 51 -13 96 -30z m-1032 6 c-2 -2 -38 -31 -79 -65 -85 -71 -171 -164 -231 -253 -59 -87 -135 -250 -160 -345 l-22 -83 -481 0 -480 0 59 53 c308 276 663 481 1050 607 140 45 361 101 344 86z m1493 -25 c204 -47 467 -146 665 -251 247 -131 261 -150 109 -150 -118 0 -170 -23 -203 -90 -21 -41 -23 -58 -23 -217 l0 -173 -83 0 -83 0 -12 90 c-41 305 -220 604 -477 798 -35 26 -41 26 107 -7z m-1028 -316 c11 -20 36 -45 55 -58 32 -20 49 -22 161 -22 112 0 129 2 161 22 19 13 44 38 55 58 10 19 22 35 27 35 5 0 46 -19 90 -42 63 -32 104 -63 173 -132 79 -78 98 -104 137 -186 25 -52 50 -120 57 -150 6 -30 14 -63 17 -72 4 -16 -5 -18 -84 -18 l-88 0 -23 40 c-30 52 -89 95 -153 110 -37 9 -63 24 -95 56 -154 149 -401 146 -554 -6 -226 -227 -104 -612 213 -671 116 -21 255 22 341 105 32 32 58 47 95 56 64 15 123 58 153 110 l23 40 88 0 c79 0 88 -2 84 -17 -3 -10 -11 -43 -17 -73 -7 -30 -32 -98 -57 -150 -39 -82 -58 -108 -137 -186 -69 -69 -110 -100 -173 -132 -44 -23 -85 -42 -90 -42 -5 0 -17 16 -27 35 -11 20 -36 45 -55 58 -32 20 -49 22 -161 22 -145 0 -176 -11 -212 -75 -13 -22 -27 -40 -31 -40 -21 0 -167 84 -219 125 -31 25 -78 74 -104 108 -42 56 -114 185 -114 204 0 5 16 17 35 27 20 11 45 36 58 55 20 32 22 49 22 161 0 112 -2 129 -22 161 -13 19 -38 44 -58 55 -19 10 -35 22 -35 27 0 21 83 166 125 218 24 31 69 75 100 99 54 42 190 119 210 120 6 0 19 -16 29 -35z m2536 -645 l0 -560 -240 0 -240 0 0 560 0 560 240 0 240 0 0 -560z m-640 0 l0 -400 -80 0 -80 0 0 400 0 400 80 0 80 0 0 -400z m-1593 225 c21 -9 45 -23 54 -31 17 -15 16 -18 -11 -55 -61 -84 -60 -194 1 -278 l28 -40 -25 -20 c-39 -31 -90 -44 -154 -39 -239 17 -303 345 -89 452 62 30 139 35 196 11z m-807 -225 l0 -80 -800 0 -800 0 0 80 0 80 800 0 800 0 0 -80z m1095 55 c50 -49 15 -135 -55 -135 -41 0 -80 39 -80 80 0 19 9 40 25 55 15 16 36 25 55 25 19 0 40 -9 55 -25z m660 -182 c-54 -393 -321 -723 -693 -857 -106 -38 -102 -40 -102 57 l0 82 63 23 c214 76 417 272 507 488 16 39 38 113 47 163 l18 91 83 0 83 0 -6 -47z m325 -125 c0 -153 2 -176 21 -214 33 -69 74 -88 196 -92 73 -3 103 -8 107 -18 3 -8 -31 -33 -97 -72 -193 -112 -361 -187 -577 -257 -108 -35 -321 -88 -327 -82 -1 2 19 20 46 41 66 50 181 167 235 241 105 140 194 359 218 535 l12 90 83 0 83 0 0 -172z m-2511 -71 c27 -101 111 -278 178 -372 57 -80 165 -192 241 -249 28 -22 50 -41 49 -43 -8 -7 -234 52 -365 95 -382 128 -740 337 -1026 600 l-58 52 480 0 479 0 22 -83z m315 56 c15 -61 99 -215 155 -285 32 -40 89 -97 125 -127 69 -56 205 -131 275 -152 l41 -12 0 -84 c0 -97 4 -95 -102 -57 -246 88 -449 261 -573 487 -36 66 -95 216 -95 242 0 12 17 15 84 15 83 0 84 0 90 -27z m916 -1253 l0 -800 -80 0 -80 0 0 800 0 800 80 0 80 0 0 -800z"/>
    <path d="M4560 2870 l0 -80 80 0 80 0 0 80 0 80 -80 0 -80 0 0 -80z"/>
    <path d="M4560 2550 l0 -80 80 0 80 0 0 80 0 80 -80 0 -80 0 0 -80z"/>
    <path d="M4560 2230 l0 -80 80 0 80 0 0 80 0 80 -80 0 -80 0 0 -80z"/>
    <path d="M240 4630 l0 -80 480 0 480 0 0 80 0 80 -480 0 -480 0 0 -80z"/>
    <path d="M720 4310 l0 -80 240 0 240 0 0 80 0 80 -240 0 -240 0 0 -80z"/>
    <path d="M720 3990 l0 -80 240 0 240 0 0 80 0 80 -240 0 -240 0 0 -80z"/>
    <path d="M240 3670 l0 -80 480 0 480 0 0 80 0 80 -480 0 -480 0 0 -80z"/>
    <path d="M4560 790 l0 -400 -80 0 -80 0 0 240 0 240 -80 0 -80 0 0 -240 0 -240 -80 0 -80 0 0 360 0 360 -80 0 -80 0 0 -360 0 -360 -80 0 -80 0 0 160 0 160 -80 0 -80 0 0 -160 0 -160 -68 0 -67 0 -185 185 -185 185 -52 -52 -53 -53 212 -212 213 -213 732 0 733 0 0 80 0 80 -80 0 -80 0 0 400 0 400 -80 0 -80 0 0 -400z"/>
  </g>
</svg>