<svg version="1.0" viewBox="0 0 512.000000 512.000000" preserveAspectRatio="xMidYMid meet" xmlns="http://www.w3.org/2000/svg">
  <g transform="translate(0.000000,512.000000) scale(0.100000,-0.100000)" fill="#000000" stroke="none">
    <path d="M851 4939 c-101 -20 -191 -92 -234 -187 -28 -65 -28 -179 0 -243 64 -144 218 -222 364 -184 35 8 80 26 99 39 l36 24 137 -97 136 -96 1 -342 0 -343 -50 -25 c-196 -99 -483 -295 -710 -484 -147 -122 -401 -371 -426 -416 -18 -34 -18 -36 0 -70 21 -38 241 -258 381 -379 118 -103 334 -265 462 -346 l102 -65 0 -227 1 -228 -88 0 -89 0 -12 39 c-16 55 -91 135 -158 167 -115 57 -264 31 -357 -62 -61 -61 -90 -134 -90 -224 0 -93 26 -155 91 -222 87 -88 211 -116 333 -74 70 25 162 113 181 174 l12 42 139 0 140 0 29 29 29 29 0 229 0 229 124 -61 c151 -75 298 -133 453 -180 121 -37 387 -95 436 -95 l27 0 0 -290 0 -290 -88 0 -89 0 -12 39 c-16 55 -91 135 -158 167 -115 57 -264 31 -357 -62 -61 -61 -90 -134 -90 -224 0 -93 26 -155 91 -222 87 -88 211 -116 333 -74 70 25 162 113 181 174 l12 42 139 0 140 0 29 29 29 29 0 331 0 331 59 0 c143 0 369 27 549 66 l32 7 0 -285 0 -285 -39 -12 c-55 -16 -135 -91 -167 -158 -37 -75 -39 -183 -6 -258 30 -65 102 -138 166 -166 71 -32 181 -32 252 0 64 28 136 101 165 166 29 64 31 159 5 235 -25 70 -113 162 -174 181 l-42 12 0 307 0 307 116 42 c179 65 383 163 557 265 l47 28 0 -277 0 -277 29 -29 29 -29 140 0 139 0 12 -42 c19 -62 111 -150 181 -173 159 -53 324 15 396 162 39 79 39 186 1 266 -32 65 -100 130 -165 160 -71 32 -182 29 -255 -7 -67 -32 -142 -112 -158 -167 l-12 -39 -89 0 -88 0 0 278 0 277 92 65 c260 184 686 573 703 643 10 40 -19 79 -178 233 -267 261 -545 475 -839 648 l-98 57 0 362 1 362 136 96 137 97 36 -24 c50 -33 152 -57 209 -49 76 10 167 60 211 116 53 68 74 134 68 223 -11 164 -130 283 -294 294 -220 14 -375 -171 -331 -394 l8 -42 -155 -111 c-85 -61 -162 -121 -171 -134 -13 -18 -15 -72 -15 -364 0 -189 -4 -343 -9 -343 -4 0 -47 18 -94 40 -237 111 -677 220 -889 220 l-48 0 0 253 0 254 42 12 c61 19 149 111 174 181 41 122 15 242 -73 332 -122 125 -323 125 -447 2 -93 -93 -119 -242 -62 -357 32 -67 112 -142 167 -158 l39 -12 0 -254 0 -253 -52 0 c-84 0 -316 -38 -461 -74 -119 -30 -309 -95 -409 -140 l-38 -16 0 328 c0 278 -2 331 -15 349 -9 13 -86 72 -171 134 l-155 111 8 46 c21 121 -7 213 -86 293 -76 76 -179 109 -280 88z m140 -172 c106 -71 106 -203 0 -274 -98 -66 -241 15 -241 137 0 87 73 160 160 160 32 0 58 -7 81 -23z m1680 0 c52 -35 79 -82 79 -137 0 -55 -27 -102 -79 -137 -98 -66 -241 15 -241 137 0 87 73 160 160 160 32 0 58 -7 81 -23z m1760 0 c52 -35 79 -82 79 -137 0 -55 -27 -102 -79 -137 -70 -47 -165 -23 -218 56 -47 70 -23 165 56 218 23 16 49 23 81 23 32 0 58 -7 81 -23z m-1921 -1257 l0 -160 -120 0 -120 0 0 139 0 140 57 11 c69 15 142 27 166 29 15 1 17 -13 17 -159z m235 150 c33 -5 84 -15 113 -21 l52 -10 0 -140 0 -139 -120 0 -120 0 0 160 c0 88 3 160 8 160 4 0 34 -5 67 -10z m-635 -205 l0 -105 -131 0 -131 0 -29 -29 -29 -29 0 -131 0 -131 -105 0 c-58 0 -105 4 -105 8 0 4 22 44 49 87 99 160 226 287 386 386 43 27 83 49 87 49 4 0 8 -47 8 -105z m1050 59 c103 -61 210 -153 286 -243 53 -64 154 -217 154 -235 0 -3 -47 -6 -105 -6 l-105 0 0 131 0 131 -29 29 -29 29 -131 0 -131 0 0 105 c0 58 3 105 6 105 4 0 41 -21 84 -46z m-1500 -91 c-165 -179 -270 -385 -321 -626 -31 -143 -31 -351 0 -494 51 -241 156 -447 320 -625 60 -65 61 -67 29 -56 -66 23 -366 179 -471 245 -262 166 -513 362 -726 569 l-116 114 115 113 c292 286 655 549 994 719 101 51 221 106 234 108 2 0 -24 -30 -58 -67z m2006 -28 c370 -185 709 -427 1023 -731 l116 -113 -75 -76 c-223 -226 -561 -488 -853 -659 -95 -56 -393 -206 -410 -206 -5 0 19 30 53 68 165 178 270 384 321 625 31 143 31 351 0 494 -51 241 -156 447 -321 626 -34 37 -58 67 -53 67 5 0 95 -43 199 -95z m-436 -845 l0 -640 -640 0 -640 0 0 640 0 640 640 0 640 0 0 -640z m-1440 200 l0 -120 -160 0 c-88 0 -160 3 -160 8 0 12 19 124 31 180 l10 52 140 0 139 0 0 -120z m1889 68 c12 -56 31 -168 31 -180 0 -5 -72 -8 -160 -8 l-160 0 0 120 0 120 139 0 140 0 10 -52z m-1889 -468 l0 -120 -139 0 -140 0 -10 53 c-12 55 -31 167 -31 180 0 4 72 7 160 7 l160 0 0 -120z m1920 113 c0 -13 -19 -125 -31 -180 l-10 -53 -140 0 -139 0 0 120 0 120 160 0 c88 0 160 -3 160 -7z m-1920 -524 l0 -131 29 -29 29 -29 131 0 131 0 0 -105 c0 -58 -3 -105 -6 -105 -4 0 -41 21 -84 46 -158 94 -300 236 -394 394 -25 43 -46 80 -46 84 0 3 47 6 105 6 l105 0 0 -131z m1810 125 c0 -4 -21 -41 -46 -84 -94 -158 -236 -300 -394 -394 -43 -25 -80 -46 -84 -46 -3 0 -6 47 -6 105 l0 105 131 0 131 0 29 29 29 29 0 131 0 131 105 0 c58 0 105 -3 105 -6z m-1090 -474 c0 -88 -3 -160 -7 -160 -13 0 -125 19 -180 31 l-53 10 0 140 0 139 120 0 120 0 0 -160z m400 21 l0 -140 -52 -10 c-56 -12 -168 -31 -180 -31 -5 0 -8 72 -8 160 l0 160 120 0 120 0 0 -139z m-2159 -284 c106 -71 106 -203 0 -274 -98 -66 -241 15 -241 137 0 87 73 160 160 160 32 0 58 -7 81 -23z m4000 0 c106 -71 106 -203 0 -274 -98 -66 -241 15 -241 137 0 87 73 160 160 160 32 0 58 -7 81 -23z m-2800 -560 c106 -71 106 -203 0 -274 -98 -66 -241 15 -241 137 0 122 143 203 241 137z m1360 -160 c52 -35 79 -82 79 -137 0 -122 -143 -203 -241 -137 -52 35 -79 82 -79 137 0 122 143 203 241 137z"/>
    <path d="M2059 3081 c-16 -16 -29 -39 -29 -51 0 -28 52 -80 80 -80 28 0 80 52 80 80 0 28 -52 80 -80 80 -12 0 -35 -13 -51 -29z"/>
    <path d="M2352 2978 c-125 -115 -214 -204 -228 -230 -11 -22 -14 -86 -14 -323 l0 -297 29 -29 29 -29 422 0 422 0 29 29 29 29 0 422 0 422 -29 29 -29 29 -302 0 -301 0 -57 -52z m558 -428 l0 -320 -320 0 -320 0 0 227 0 228 92 92 93 93 227 0 228 0 0 -320z"/>
  </g>
</svg>