<svg version="1.0" viewBox="0 0 512.000000 512.000000" preserveAspectRatio="xMidYMid meet" xmlns="http://www.w3.org/2000/svg">
  <g transform="translate(0.000000,512.000000) scale(0.100000,-0.100000)" fill="#000000" stroke="none">
    <path d="M222 4721 c-76 -26 -140 -85 -182 -166 -31 -60 -35 -76 -35 -144 1 -127 65 -235 177 -297 49 -27 61 -29 153 -29 89 0 106 3 150 27 28 14 61 38 74 52 l24 26 496 0 496 0 140 -176 c77 -97 148 -180 158 -186 11 -5 30 -7 44 -3 35 8 272 201 286 232 15 34 11 41 -201 305 -163 203 -184 227 -230 246 -50 22 -58 22 -617 22 l-567 0 -41 35 c-84 72 -214 94 -325 56z m205 -148 c54 -28 95 -98 95 -161 0 -140 -143 -232 -267 -172 -108 52 -140 198 -62 287 64 72 150 89 234 46z m1277 -93 c21 -8 327 -375 325 -390 0 -6 -106 -90 -112 -90 -3 0 -58 66 -122 148 -65 81 -126 155 -137 165 -19 16 -58 17 -507 17 l-486 0 2 78 c1 42 2 78 2 80 2 7 1014 1 1035 -8z"/>
    <path d="M2507 4289 c-53 -12 -87 -32 -124 -71 -59 -61 -66 -93 -71 -304 l-4 -192 -67 -7 c-263 -27 -570 -120 -800 -241 -157 -83 -244 -147 -367 -269 -116 -115 -193 -225 -236 -336 l-22 -57 -206 -4 c-182 -3 -210 -6 -250 -24 -150 -70 -191 -265 -81 -387 66 -73 97 -81 331 -85 l205 -4 29 -70 c16 -39 55 -110 87 -158 97 -144 339 -360 405 -360 35 0 64 34 64 75 0 31 -7 40 -77 93 -159 121 -255 227 -323 357 l-32 60 164 6 c142 5 169 9 211 28 166 80 184 317 32 423 -52 36 -119 48 -276 48 l-129 0 13 28 c51 116 155 245 277 345 253 205 577 331 1008 391 l42 6 0 -106 c0 -98 -1 -106 -20 -111 -39 -10 -160 -72 -217 -111 -79 -54 -192 -175 -243 -261 -55 -92 -96 -213 -111 -325 -21 -167 8 -326 93 -496 46 -93 64 -117 153 -206 87 -88 113 -107 200 -151 55 -27 110 -52 123 -55 21 -6 22 -11 22 -112 l0 -106 -42 6 c-222 31 -390 72 -561 136 l-109 41 -26 -20 c-28 -21 -37 -50 -28 -88 15 -58 413 -178 702 -210 l62 -7 4 -192 c3 -166 6 -197 24 -236 69 -150 265 -191 387 -81 71 64 81 99 85 317 l4 192 67 7 c180 18 424 79 596 147 233 92 415 207 566 358 114 113 192 223 237 331 l27 67 205 4 c182 3 210 6 250 24 150 70 191 265 81 387 -66 73 -97 81 -331 85 l-205 4 -29 70 c-63 155 -229 351 -398 472 -78 55 -118 59 -151 14 -32 -43 -17 -69 76 -139 149 -113 285 -270 332 -383 l15 -36 -122 0 c-222 0 -291 -25 -353 -125 -27 -43 -30 -57 -30 -125 0 -68 3 -82 30 -125 62 -100 131 -125 353 -125 l122 0 -34 -69 c-94 -186 -297 -367 -551 -491 -210 -103 -418 -163 -712 -204 l-43 -6 0 106 c0 98 1 106 20 111 12 3 52 21 91 39 185 89 320 227 408 416 52 112 75 218 75 348 0 330 -184 620 -483 764 -39 18 -79 36 -91 39 -19 5 -20 13 -20 111 l0 106 43 -6 c210 -29 432 -83 567 -138 35 -14 76 -26 92 -26 57 0 91 76 50 113 -64 58 -406 156 -653 188 l-97 12 -4 191 c-3 167 -6 197 -25 236 -48 105 -168 165 -276 139z m102 -153 c50 -26 51 -36 51 -481 l0 -415 -29 -32 c-24 -27 -36 -33 -71 -33 -35 0 -47 6 -71 33 l-29 32 0 416 c0 286 3 422 11 437 28 54 83 71 138 43z m-224 -1036 c45 -47 119 -73 190 -68 101 9 166 53 209 142 l22 46 70 -34 c239 -121 384 -357 384 -625 0 -119 -19 -203 -70 -306 -71 -146 -172 -249 -315 -321 l-69 -35 -23 47 c-30 63 -56 89 -117 119 -68 34 -144 34 -213 0 -59 -30 -73 -44 -111 -113 l-29 -52 -69 34 c-237 119 -384 358 -384 626 0 269 145 505 384 626 l70 34 22 -46 c12 -25 34 -59 49 -74z m-1083 -469 c27 -24 33 -36 33 -71 0 -35 -6 -47 -33 -71 l-32 -29 -415 0 c-300 0 -421 3 -440 12 -48 22 -68 88 -41 137 28 50 32 50 478 51 l418 0 32 -29z m3407 15 c66 -35 66 -137 0 -172 -23 -11 -103 -14 -443 -14 l-416 0 -32 29 c-27 24 -33 36 -33 71 0 35 6 47 33 71 l32 29 416 0 c340 0 420 -3 443 -14z m-2076 -736 l27 -30 0 -415 c0 -445 -1 -455 -51 -481 -35 -18 -63 -18 -98 0 -50 26 -51 36 -51 480 0 407 0 414 21 440 43 54 105 57 152 6z"/>
    <path d="M2488 2970 c-122 -21 -244 -114 -301 -229 -30 -62 -32 -72 -32 -176 0 -99 3 -116 28 -169 54 -117 137 -190 258 -227 77 -24 161 -24 238 0 121 37 204 110 258 227 25 53 28 70 28 169 0 104 -2 114 -32 176 -59 120 -178 208 -310 229 -65 11 -68 11 -135 0z m163 -155 c138 -47 212 -208 160 -347 -24 -63 -87 -129 -149 -155 -48 -21 -156 -21 -204 0 -104 44 -175 159 -165 269 16 178 189 291 358 233z"/>
    <path d="M399 3893 c-178 -91 -178 -335 0 -425 133 -68 293 1 336 144 19 64 19 72 -1 139 -12 40 -28 66 -63 99 -77 76 -176 91 -272 43z m139 -124 c84 -29 82 -151 -3 -179 -28 -9 -41 -8 -68 5 -74 35 -75 134 -3 169 37 19 36 19 74 5z"/>
    <path d="M1005 3852 c-43 -20 -101 -79 -116 -119 -12 -32 -12 -125 1 -157 5 -14 25 -43 45 -65 93 -102 255 -91 332 22 70 103 45 236 -56 303 -55 36 -149 43 -206 16z m129 -143 c36 -29 36 -80 -1 -109 -70 -55 -151 42 -88 105 30 30 54 31 89 4z"/>
    <path d="M3968 1678 c-81 -22 -158 -123 -158 -206 0 -92 80 -192 168 -211 107 -23 207 26 247 121 30 74 13 181 -38 236 -50 54 -147 80 -219 60z m109 -160 c29 -27 29 -65 1 -95 -43 -46 -118 -16 -118 47 0 62 71 92 117 48z"/>
    <path d="M4558 1680 c-87 -22 -158 -95 -178 -183 -14 -63 -4 -117 34 -179 123 -204 439 -113 439 127 0 93 -42 165 -120 207 -56 30 -122 41 -175 28z m123 -169 c21 -22 29 -39 29 -66 0 -51 -44 -95 -95 -95 -51 0 -95 44 -95 95 0 51 44 95 95 95 27 0 44 -8 66 -29z"/>
    <path d="M3061 1194 c-73 -58 -137 -117 -144 -131 -15 -34 -11 -41 201 -305 163 -203 184 -227 230 -246 50 -22 58 -22 617 -22 l567 0 41 -35 c63 -54 137 -78 228 -73 128 7 224 70 280 184 61 123 40 267 -54 371 -20 21 -60 52 -89 69 -49 27 -61 29 -153 29 -89 0 -106 -3 -150 -27 -27 -14 -61 -38 -74 -52 l-24 -26 -496 0 -496 0 -140 176 c-77 97 -148 180 -157 185 -35 19 -59 6 -187 -97z m264 -221 c65 -82 126 -156 137 -165 19 -17 58 -18 507 -18 l486 0 -1 -77 -2 -78 -505 -3 c-307 -1 -515 2 -531 7 -21 9 -327 375 -325 391 0 7 102 89 110 89 4 1 60 -65 124 -146z m1543 -94 c107 -52 136 -200 56 -289 -84 -93 -226 -87 -291 11 -110 166 57 364 235 278z"/>
  </g>
</svg>