<svg id="Layer_1" data-name="Layer 1" xmlns="http://www.w3.org/2000/svg" viewBox="0 0 230.2 132.42"><path id="path20" d="M208.51,162.85c-5.9,8.16-17.72,5.62-33.76,5.62-15.75,0-21.38-7.31-22.5-15.19-2-12.1,2.53-13.78,12.38-16.32,11-2.81,45.85-2.25,49.23,3.1C217.52,145.12,214.14,154.69,208.51,162.85ZM96.82,153c-1.12,7.88-6.75,15.19-22.5,15.19S46.46,171,40.84,162.57c-5.91-8.16-9-17.73-5.91-22.79,3.66-5.63,38.26-5.91,49.23-3.1,10.13,2.53,14.63,4.5,12.66,16.32Zm142.92-21.38c-1.12-5.63-4.22-9.57-8.72-10.41-5.63-1.41-27.29-3.38-46.42-3.38-14.63,0-25.32,1.13-31.23,3.66-7,2.81-17.44,4.5-28.41,4.5s-21.38-1.69-28.42-4.5c-5.91-2.25-16.6-3.66-31.51-3.66-19.13,0-40.51,2-46.14,3.38-4.5,1.12-7.87,5.06-8.72,10.69-1.12,5.91.28,13.5,4.22,16,.57.56,1.41,3.93,2,6.47,1.41,5.9,3.66,14.34,9.29,21.38S44.21,186.2,64.19,186.2a149.52,149.52,0,0,0,22.22-1.41c12.38-1.41,22.51-9.56,28.42-22.79a21.44,21.44,0,0,0,1.69-5.06c1.12-3.94,1.4-3.94,2-3.94H130.3c.85,0,1.41.56,3.1,5.06.56,1.41,1.12,2.82,1.69,4.22,5.9,13.23,16,21.39,28.13,22.79a211.23,211.23,0,0,0,22.22,1.41h0c20,0,32.64-3.66,38.27-10.41,5.62-7,7.87-15.47,9.28-21.38a30.08,30.08,0,0,1,2-6.47c4.5-3.1,5.63-10.69,4.78-16.6" transform="translate(-9.8 -54.06)" style="fill:#5c5d5f"/><path id="path22" d="M223.14,107.14,190.79,63c-9.85-13.5-30.67-11.25-37.7,3.94l-.56,1.41h0c2.81,3.37,7.87,3.94,11,.56h0a5.76,5.76,0,0,1,8.72.56l26.16,35.17,24.76,2.53" transform="translate(-9.8 -54.06)" style="fill:#5c5d5f"/><path id="path24" d="M26.49,107.14,58.84,63c9.85-13.5,30.67-11.25,37.7,3.94l.57,1.41h0c-2.82,3.37-7.88,3.94-11,.56h0a5.76,5.76,0,0,0-8.72.56L51.25,104.61l-24.76,2.53" transform="translate(-9.8 -54.06)" style="fill:#5c5d5f"/></svg>