<svg width="400" height="260" viewBox="0 0 400 260" fill="none" xmlns="http://www.w3.org/2000/svg">
  <rect width="400" height="260" fill="#F3F4F6"/>
  <rect x="50" y="60" width="300" height="140" fill="#E5E7EB" rx="8"/>
  <circle cx="130" cy="130" r="25" fill="#9CA3AF"/>
  <path d="M130 115 C130 115 125 125 125 135 C125 145 130 145 130 145 C130 145 135 145 135 135 C135 125 130 115 130 115Z" fill="#6B7280"/>
  <path d="M115 135 C115 135 105 140 105 150 C105 160 115 160 115 160 C115 160 125 160 125 150 C125 140 115 135 115 135Z" fill="#6B7280"/>
  <path d="M145 135 C145 135 155 140 155 150 C155 160 145 160 145 160 C145 160 135 160 135 150 C135 140 145 135 145 135Z" fill="#6B7280"/>
  <rect x="180" y="90" width="120" height="8" fill="#9CA3AF" rx="4"/>
  <rect x="180" y="110" width="100" height="8" fill="#9CA3AF" rx="4"/>
  <rect x="180" y="130" width="110" height="8" fill="#9CA3AF" rx="4"/>
  <rect x="180" y="150" width="90" height="8" fill="#9CA3AF" rx="4"/>
  <rect x="180" y="170" width="80" height="8" fill="#9CA3AF" rx="4"/>
  <text x="200" y="45" font-family="Arial, sans-serif" font-size="18" font-weight="600" fill="#6B7280" text-anchor="middle">Blog Post</text>
</svg>
