<svg version="1.0" viewBox="0 0 512.000000 512.000000" preserveAspectRatio="xMidYMid meet" xmlns="http://www.w3.org/2000/svg">
  <g transform="translate(0.000000,512.000000) scale(0.100000,-0.100000)" fill="#000000" stroke="none">
    <path d="M2255 5045 c-539 -71 -1037 -308 -1423 -679 -431 -415 -694 -951 -763 -1555 -17 -156 -7 -506 20 -656 49 -275 116 -482 232 -715 249 -502 639 -889 1144 -1135 235 -115 459 -186 733 -232 154 -26 581 -26 735 0 267 45 491 115 713 221 279 135 468 270 689 491 219 219 346 396 480 670 116 237 185 455 232 732 23 135 26 568 5 703 -71 461 -252 881 -532 1235 -84 106 -294 314 -400 397 -374 289 -800 467 -1259 524 -142 17 -468 17 -606 -1z m670 -149 c245 -39 447 -103 681 -216 293 -142 575 -365 796 -630 144 -173 305 -458 391 -690 42 -115 91 -309 113 -445 22 -143 29 -426 15 -581 -86 -911 -697 -1698 -1560 -2009 -383 -137 -830 -171 -1245 -94 -533 99 -1024 393 -1388 829 -141 170 -295 439 -383 670 -46 120 -98 322 -122 470 -25 162 -25 548 0 710 105 666 480 1251 1038 1620 328 217 652 331 1089 384 81 10 479 -3 575 -18z"/>
    <path d="M2296 4553 c-658 -88 -1238 -502 -1532 -1093 -136 -275 -200 -526 -211 -835 -8 -240 21 -461 89 -674 233 -732 838 -1255 1603 -1388 140 -24 500 -24 640 0 729 126 1314 608 1569 1290 79 211 114 393 123 632 12 338 -51 641 -197 944 -304 629 -907 1055 -1602 1130 -132 15 -350 12 -482 -6z m618 -153 c761 -152 1345 -736 1496 -1496 28 -140 38 -411 20 -562 -24 -212 -106 -473 -206 -662 -80 -150 -241 -372 -281 -387 -10 -4 -76 56 -212 191 l-196 196 -970 0 -970 0 -196 -196 c-136 -135 -202 -195 -212 -191 -42 16 -204 242 -287 398 -97 186 -176 441 -200 651 -18 151 -8 422 20 562 81 408 298 788 604 1059 243 214 577 377 892 436 156 29 158 29 384 26 163 -2 227 -7 314 -25z m750 -3039 l179 -180 -70 -60 c-228 -196 -548 -349 -867 -413 -96 -20 -142 -23 -341 -23 -251 0 -317 9 -512 66 -268 80 -504 205 -696 370 l-70 60 179 180 178 179 921 0 921 0 178 -179z"/>
    <path d="M2514 4179 c-17 -19 -19 -38 -19 -171 0 -145 1 -150 24 -169 13 -10 33 -19 46 -19 13 0 33 9 46 19 23 19 24 24 24 169 0 133 -2 152 -19 171 -12 13 -31 21 -51 21 -20 0 -39 -8 -51 -21z"/>
    <path d="M1400 3720 c-41 -41 -28 -67 88 -183 116 -116 140 -127 180 -84 40 43 30 64 -86 180 -115 115 -141 128 -182 87z"/>
    <path d="M3215 3300 l-441 -441 -59 28 c-52 24 -73 28 -150 28 -76 0 -99 -4 -147 -27 -79 -37 -142 -98 -181 -177 -29 -59 -32 -74 -32 -156 0 -77 4 -98 28 -149 l28 -60 -78 -78 c-43 -43 -82 -78 -87 -78 -5 0 -26 16 -47 35 -47 42 -85 46 -117 12 -41 -44 -31 -62 111 -204 143 -143 164 -154 205 -110 32 34 28 70 -13 116 -19 21 -35 42 -35 47 0 5 35 44 78 87 l78 78 60 -28 c51 -24 72 -28 149 -28 82 0 97 3 156 32 79 39 140 102 177 181 23 48 27 71 27 147 0 77 -4 98 -28 150 l-28 59 441 441 c470 471 468 467 420 515 -48 48 -44 51 -515 -420z m-567 -536 c152 -63 189 -259 71 -371 -114 -107 -293 -72 -360 72 -82 177 109 375 289 299z"/>
    <path d="M970 2623 c-52 -20 -68 -84 -29 -119 19 -17 38 -19 171 -19 145 0 150 1 169 24 24 30 24 62 0 92 -18 23 -25 24 -158 26 -76 1 -145 0 -153 -4z"/>
    <path d="M3870 2618 c-53 -28 -49 -107 7 -129 16 -6 83 -9 159 -7 150 3 174 14 174 73 0 60 -24 70 -179 73 -97 2 -143 -1 -161 -10z"/>
    <path d="M2082 1370 c-36 -15 -42 -50 -42 -236 0 -170 6 -207 34 -226 6 -4 228 -8 493 -8 522 0 505 -2 519 54 3 12 4 104 2 204 -3 158 -5 184 -21 199 -16 17 -52 18 -490 20 -271 1 -482 -2 -495 -7z m863 -235 l0 -100 -380 0 -380 0 -3 89 c-2 49 -1 95 2 103 5 11 75 13 383 11 l378 -3 0 -100z"/>
  </g>
</svg>