<svg version="1.0" viewBox="0 0 512.000000 512.000000" preserveAspectRatio="xMidYMid meet" xmlns="http://www.w3.org/2000/svg">
  <g transform="translate(0.000000,512.000000) scale(0.100000,-0.100000)" fill="#000000" stroke="none">
    <path d="M4660 4534 c-93 -24 -154 -75 -252 -209 -50 -68 -88 -130 -88 -143 0 -53 47 -90 94 -73 12 5 57 56 99 113 111 152 146 178 242 178 157 0 262 -163 196 -305 -17 -36 -712 -815 -728 -815 -8 0 -243 189 -243 196 0 3 70 103 155 221 109 151 155 224 155 243 0 52 -72 89 -112 58 -16 -13 -318 -431 -337 -467 -14 -26 -14 -94 0 -125 11 -23 -1 -40 -171 -250 -100 -124 -185 -226 -189 -226 -3 1 -36 26 -73 58 -110 94 -214 150 -359 189 -47 13 -102 18 -209 18 -168 0 -248 -18 -386 -86 l-82 -40 -133 15 c-520 61 -1027 -79 -1454 -402 -73 -55 -741 -717 -759 -752 -24 -46 -28 -98 -12 -153 14 -48 35 -71 279 -314 146 -146 271 -263 281 -263 21 0 58 18 68 34 4 6 8 24 8 41 0 25 -21 50 -126 156 -110 110 -125 129 -116 146 11 19 73 77 132 122 45 34 71 93 71 158 0 76 -37 135 -111 179 -30 18 -65 43 -78 56 l-22 24 197 195 c109 107 235 223 281 258 263 199 537 315 861 366 103 16 429 23 464 10 13 -5 6 -18 -34 -68 -27 -33 -49 -64 -49 -68 0 -3 -62 -9 -137 -12 -169 -7 -260 -29 -399 -97 -596 -291 -728 -1077 -259 -1545 329 -330 838 -377 1226 -114 131 89 251 227 318 366 l35 71 70 11 c138 23 331 105 356 151 18 33 11 67 -16 89 -15 12 -32 21 -39 21 -7 0 -55 -20 -107 -45 -128 -61 -201 -79 -328 -79 -165 0 -304 47 -438 149 -270 204 -355 593 -196 895 190 363 646 495 996 289 69 -40 178 -133 178 -151 0 -6 -54 -78 -120 -160 -128 -159 -140 -188 -101 -227 11 -11 37 -24 58 -28 50 -10 235 -10 297 0 l49 9 -6 -89 c-9 -142 -43 -250 -113 -361 -38 -59 -42 -90 -16 -123 29 -35 79 -31 114 12 32 37 108 183 108 205 0 8 3 14 8 14 4 0 51 -44 105 -98 80 -80 97 -103 97 -128 0 -26 -41 -70 -322 -350 -178 -176 -352 -343 -388 -371 -368 -287 -814 -424 -1274 -392 -346 24 -669 142 -950 346 -48 35 -98 68 -111 73 -50 19 -106 -44 -84 -93 13 -28 111 -105 228 -177 647 -401 1486 -394 2121 18 153 99 201 142 549 486 356 354 381 383 381 461 0 72 -33 122 -175 265 l-135 136 0 111 0 111 54 30 c69 39 162 126 244 227 88 108 96 129 87 232 l-7 84 42 54 c39 51 43 53 73 44 19 -5 45 -5 68 1 39 11 36 8 639 675 187 208 214 256 213 380 -1 171 -105 308 -268 350 -72 18 -113 18 -185 -1z m-649 -1275 l39 -31 -40 -48 c-64 -76 -70 -94 -70 -205 l0 -100 -70 -88 c-124 -153 -243 -227 -415 -255 -52 -8 -98 -13 -101 -10 -5 5 605 768 614 768 2 0 22 -14 43 -31z m-1981 -607 c0 -5 -9 -44 -20 -88 -12 -43 -24 -119 -28 -168 l-7 -89 -61 -13 c-146 -30 -267 -124 -331 -260 -33 -69 -38 -89 -41 -171 -9 -207 92 -371 283 -460 50 -23 77 -28 160 -31 113 -5 192 15 277 69 46 30 115 98 135 133 10 18 14 17 77 -13 69 -32 195 -71 233 -71 35 0 36 -17 4 -73 -63 -111 -189 -232 -314 -301 -241 -135 -561 -130 -802 11 -141 82 -276 233 -341 378 -59 134 -81 339 -53 491 52 282 284 538 564 623 106 32 265 52 265 33z m-20 -539 c15 -62 79 -198 121 -260 18 -26 61 -78 96 -114 l64 -66 -28 -34 c-43 -52 -63 -68 -123 -97 -46 -22 -68 -27 -135 -27 -67 0 -89 4 -136 28 -66 32 -132 99 -162 165 -31 67 -30 188 1 258 43 95 175 193 263 194 23 0 28 -6 39 -47z m-1566 -216 c25 -17 34 -51 18 -72 -4 -6 -25 -23 -47 -39 -22 -16 -59 -50 -83 -75 l-44 -45 -69 71 c-91 93 -91 103 2 198 l71 73 63 -46 c35 -26 75 -55 89 -65z"/>
    <path d="M4705 4239 c-15 -18 -31 -43 -36 -56 -17 -45 20 -93 71 -93 28 0 87 58 96 94 10 40 -23 80 -68 84 -29 3 -40 -2 -63 -29z"/>
  </g>
</svg>