<svg id="Layer_1" data-name="Layer 1" xmlns="http://www.w3.org/2000/svg" viewBox="0 0 204.09 221.74"><path id="path108" d="M230,66.65H25.91V35.93A15.82,15.82,0,0,1,41.8,20h172a15.82,15.82,0,0,1,15.89,15.89L230,66.65" transform="translate(-25.91 -20.04)" style="fill:#5c5d5f"/><path id="path110" d="M126.19,108.32v-4.24H138.9V96.31H126.19V92.07h13.42V84.66H116.3v31.42h24v-7.76H126.19" transform="translate(-25.91 -20.04)" style="fill:#5c5d5f"/><path id="path112" d="M218,214.6H36.15V74.07H50.28v126.4H203.87V74.07H218V214.6" transform="translate(-25.91 -20.04)" style="fill:#5c5d5f"/><path id="path114" d="M128,216a7.06,7.06,0,1,0,7.06,7.06,7,7,0,0,0-2.12-4.94A6.37,6.37,0,0,0,128,216Zm0,25.77h0a18.71,18.71,0,1,1,0-37.42A18.43,18.43,0,0,1,141,210a16.82,16.82,0,0,1,5.3,13.06A18.1,18.1,0,0,1,128,241.78" transform="translate(-25.91 -20.04)" style="fill:#5c5d5f"/><path id="path116" d="M118.42,140.45a12,12,0,1,1-12-12,11.9,11.9,0,0,1,12,12" transform="translate(-25.91 -20.04)" style="fill:#5c5d5f"/><path id="path118" d="M161.5,140.45a12,12,0,1,1-12-12,12.14,12.14,0,0,1,12,12" transform="translate(-25.91 -20.04)" style="fill:#5c5d5f"/><path id="path120" d="M93.35,176.11a9.89,9.89,0,1,1-9.88-9.89,9.86,9.86,0,0,1,9.88,9.89" transform="translate(-25.91 -20.04)" style="fill:#5c5d5f"/><path id="path122" d="M137.84,176.11a9.89,9.89,0,1,1-9.88-9.89,10.1,10.1,0,0,1,9.88,9.89" transform="translate(-25.91 -20.04)" style="fill:#5c5d5f"/><path id="path124" d="M182,176.11a9.89,9.89,0,1,1-9.89-9.89,9.87,9.87,0,0,1,9.89,9.89" transform="translate(-25.91 -20.04)" style="fill:#5c5d5f"/></svg>