<svg id="Layer_1" data-name="Layer 1" xmlns="http://www.w3.org/2000/svg" viewBox="0 0 214.09 202.7"><path id="path74" d="M207.27,183.64v16.92A55,55,0,0,1,195.56,208V191.12a67.67,67.67,0,0,1-24.73,6.51v16.59c-1.62,0-2.93.33-4.55.33-2.61,0-4.88-.33-7.49-.33V197.63a61.67,61.67,0,0,1-24.72-8.13v16.92a55.55,55.55,0,0,1-11.72-8.79V180.06c-7.8-8.13-12.36-18.22-12.36-29.28v-1.95a51.06,51.06,0,0,1,2-10.09h0a13.63,13.63,0,0,1,1.3-3.25,49.68,49.68,0,0,1,11.39-16,59.88,59.88,0,0,1,16.92-10.73,1.11,1.11,0,0,0,.65-.33,39.54,39.54,0,0,1,6.51-2.28,62.2,62.2,0,0,1,17.57-2.27c31.23,0,56.61,21.15,56.61,46.85,0,13-5.86,24.4-15.62,32.86ZM88.19,125.73v16.59c-1.63,0-2.93.33-4.55.33-2.61,0-4.88-.33-7.49-.33V125.73a61.68,61.68,0,0,1-24.72-8.14v16.92a55.18,55.18,0,0,1-11.72-8.78V108.16C31.9,100,27.35,89.94,27.35,78.87,27.35,52.85,52.73,32,84,32s56.61,21.15,56.61,46.85a40.39,40.39,0,0,1-9.11,25.38,62.07,62.07,0,0,0-18.87,15A67.67,67.67,0,0,1,88.19,125.73ZM232,150.45c0-30.25-29.28-54.66-65.72-54.66a72.46,72.46,0,0,0-16.92,2V78.22c0-30.25-29.28-54.66-65.72-54.66S17.91,48,17.91,78.22V99.37c0,28,25.38,51.08,58.24,54.34l24.4,19.84c1.31,29.29,29.94,52.71,65.73,52.71,36.44,0,65.72-24.4,65.72-54.66V150.45Zm-46.2,16.6H156.19V119.54h10.74v38.4H185.8Zm-19.2-59.22c-25.7,0-46.85,17.25-46.85,38.72s20.82,38.72,46.85,38.72c25.71,0,46.85-17.25,46.85-38.72C213.13,125.08,192.31,107.83,166.6,107.83Zm-84.27-53c-2.6,0-4.23.32-4.88.32v13h4.23c5.21,0,8.46-2.61,8.46-6.83C90.47,57.08,87.21,54.8,82.33,54.8Zm9.44,40a61.39,61.39,0,0,1-3.25-11.07c-1.31-5.85-3.26-7.48-7.81-7.48H77.45V94.82H66.72V48A83.32,83.32,0,0,1,81,47c7.16,0,12,1,15.3,3.9,2.92,2.28,4.22,5.53,4.22,10.09,0,6.18-4.22,10.09-8.45,11.71V73c3.25,1.3,5.2,4.55,6.5,8.78,1.63,5.21,2.93,11.72,3.91,13.34Zm38.72-20.5c0-21.47-20.83-38.72-46.85-38.72-25.71,0-46.86,17.25-46.86,38.72S57.61,113,83.64,113c26,.32,46.85-17.25,46.85-38.72" transform="translate(-17.91 -23.56)" style="fill:#5c5d5f"/></svg>