<svg id="Layer_1" data-name="Layer 1" xmlns="http://www.w3.org/2000/svg" viewBox="0 0 245.39 132.21"><path id="path68" d="M25.06,125c9.66,12.79,40.85,47.4,100.4,47.4v0c59.87,0,91.05-34.61,100.4-47.4C216.2,112.24,185,77.63,125.46,77.63,65.59,77.32,34.41,111.93,25.06,125Zm100.4,66.1h0c-83.25,0-118.49-58.93-120-61.42L2.61,125l2.81-4.68C7,117.85,42.21,58.92,125.15,58.92c83.25,0,118.48,58.93,120,61.42L248,125l-2.81,4.68c-1.24,2.49-36.79,61.42-119.73,61.42" transform="translate(-2.61 -58.92)" style="fill:#5c5d5f"/><path id="path70" d="M125.46,73.89a46.46,46.46,0,1,0,0,92.91v0a46.57,46.57,0,0,0,46.46-46.46A44.75,44.75,0,0,0,158.2,87.61,46,46,0,0,0,125.46,73.89Zm0,105.39h0A58.94,58.94,0,1,1,167.24,78.56a58.18,58.18,0,0,1,17.15,41.78,59.09,59.09,0,0,1-58.93,58.94" transform="translate(-2.61 -58.92)" style="fill:#5c5d5f"/><path id="path72" d="M125.46,93.22h-1.25a17.48,17.48,0,0,1,2.81,9.66,18.77,18.77,0,0,1-18.71,18.71,17.53,17.53,0,0,1-9.67-2.8V120a27.13,27.13,0,0,0,54.26,0,27.56,27.56,0,0,0-27.44-26.81" transform="translate(-2.61 -58.92)" style="fill:#5c5d5f"/></svg>