<svg id="Layer_1" data-name="Layer 1" xmlns="http://www.w3.org/2000/svg" viewBox="0 0 243.17 125.58">
    <path d="M123.46,63.23s10.52,0,16.83,7.9c3.68,7.36,4.73,6.31,3.16,21,0,0,3.15,1.58,1.57,9.47-.52,2.1-1.05,5.78-4.2,5.78,0,0-2.11,6.32-3.16,8.42v10.52a9.44,9.44,0,0,1,3.68,4.74c2.11,1.05,20.52,6.84,20.52,6.84s28.93,4.21,25.78,47.87H61.2s-5.08-39.46,22.27-42.61C93.47,139,105,132.68,105,132.68s-.52-1.06,2.11-4.21V118A64.57,64.57,0,0,1,105,107.42s-4.21-1-4.73-8.41c0-1.58-1-6.32,2.63-7.37C102.94,89,99.78,64.29,123.46,63.23Z" transform="translate(-3.33 -61.73)" style="fill:#5c5d5f;stroke:#5c5d5f;stroke-miterlimit:10;stroke-width:3px"/>
    <path d="M52.7,73S38,73,32.71,93.48C29.55,103,28.5,106.64,28,108.74s-1.57,14.73,1.58,28.41c-3.68,1-11,1.58-16.83,12.62A163.89,163.89,0,0,0,6.4,169.24s-1.57,6.84-1.57,8.94h56s-.15-18.63,9-28.14c7.09-7.4,19.91-9.58,20.4-9.86,1.17-.67-2.1-1.88-3.31-2.51-4.73-1.57-7.36-2.63-7.36-2.63s1-30.51-2.63-37.87c-2.63-7.37-5.26-16.31-10.52-22.1-2.63-1.58-4.1-2.63-7.57-2.1A47,47,0,0,1,52.7,73Z" transform="translate(-3.33 -61.73)" style="fill:#5c5d5f;stroke:#5c5d5f;stroke-miterlimit:10;stroke-width:3px"/>
    <path d="M29.55,137.15s1.32,8.68.79,11.83c-2.45,8-.08,15.78,2.33,20.9a1.88,1.88,0,0,0,3.57-.77,79.88,79.88,0,0,1,.94-11.71c1-3.68,5.79-11.05,5.79-11.05s6.26-7,5.49-15.87c0,0-1.28-1.49-3.79-5s-4.86-12.3-4.86-12.3c-1.05-3.68.53-5.26,2.63-14.73C43.49,89,52.7,86.14,52.7,86.14a18.8,18.8,0,0,1,6.24,0C64,88,67.69,94.8,70.85,102.69c0,0,.52,7.36-1,12.63s-3.44,10.44-3.44,10.44l2.38,2.71,5.79,15.78.63,1.42" transform="translate(-3.33 -61.73)" style="fill:#5c5d5f;stroke:#5c5d5f;stroke-miterlimit:10;stroke-width:2px"/>
    <line x1="76.2" y1="73.31" x2="77.09" y2="81.99" style="fill:#5c5d5f;stroke:#5c5d5f;stroke-miterlimit:10;stroke-width:3px"/>
    <path d="M172.5,142.67S176.33,134,179,128.2s2.63-12.62,3.15-14.2c-1.05-10-.52-13.15-.52-14.2a27,27,0,0,1,.63-8.31c.23-1,.42-1.69.42-1.69C190,72.44,202.1,76.65,202.1,76.65s15-3.42,20.78,18.67c1.58,8.42,5.26,21.8,0,43.52,0,.3,13.16,5.94,13.16,5.94s9.46-1.58,8.94,7.36-1.58,24.73-2.63,27.36c0,.52-54.47,0-54.47,0v-1" transform="translate(-3.33 -61.73)" style="fill:#5c5d5f;stroke:#5c5d5f;stroke-miterlimit:10;stroke-width:3px"/>
    <path d="M181.81,115.74c0,1,4.77,9.57,4.77,9.57l4.21,7.37s-2.55,15.85-9.16,20" transform="translate(-3.33 -61.73)" style="fill:#5c5d5f;stroke:#5c5d5f;stroke-miterlimit:10;stroke-width:3px"/>
    <path d="M222.88,138.84s-5.12,11.93-8.79,18.31a1.77,1.77,0,0,1-.38.44c-3,2.63-4.93,9.94-5.88,14.62a1.84,1.84,0,0,1-3.28.73l-.6-.81c-2.71-3.61-2.71-8.77-2.66-10.16a1.92,1.92,0,0,1,.15-.66c1-2.25,7.25-16.68,7.31-18.42s.44-12,1-15.83a1.47,1.47,0,0,1,.08-.35c1.57-4.68,3.6-9.73,4.71-11,9.73-11.26,4.62-14.64,2.11-15.1a1.64,1.64,0,0,0-1,.09,3.1,3.1,0,0,0-.82.59,1.83,1.83,0,0,1-3-.86A57.65,57.65,0,0,0,209.37,93a1.82,1.82,0,0,0-.44-.59c-2.92-2.58-11.3-5.53-11.3-5.53s-11.08-4.7-15.27,4" transform="translate(-3.33 -61.73)" style="fill:#5c5d5f;stroke:#5c5d5f;stroke-miterlimit:10;stroke-width:2px"/>
    <path d="M123.46,63.23s10.52,0,16.83,7.9c3.68,7.36,4.73,6.31,3.16,21,0,0,3.15,1.58,1.57,9.47-.52,2.1-1.05,5.78-4.2,5.78,0,0-2.11,6.32-3.16,8.42v10.52a9.44,9.44,0,0,1,3.68,4.74c2.11,1.05,20.52,6.84,20.52,6.84s28.93,4.21,25.78,47.87H61.2s-5.08-39.46,22.27-42.61C93.47,139,105,132.68,105,132.68s-.52-1.06,2.11-4.21V118A64.57,64.57,0,0,1,105,107.42s-4.21-1-4.73-8.41c0-1.58-1-6.32,2.63-7.37C102.94,89,99.78,64.29,123.46,63.23Z" transform="translate(-3.33 -61.73)" style="fill:#5c5d5f;stroke:#5c5d5f;stroke-miterlimit:10;stroke-width:3px"/>
    <path d="M52.7,73S38,73,32.71,93.48C29.55,103,28.5,106.64,28,108.74s-1.57,14.73,1.58,28.41c-3.68,1-11,1.58-16.83,12.62A163.89,163.89,0,0,0,6.4,169.24s-1.57,6.84-1.57,8.94h56s-.15-18.63,9-28.14c7.09-7.4,19.91-9.58,20.4-9.86,1.17-.67-2.1-1.88-3.31-2.51-4.73-1.57-7.36-2.63-7.36-2.63s1-30.51-2.63-37.87c-2.63-7.37-5.26-16.31-10.52-22.1-2.63-1.58-4.1-2.63-7.57-2.1A47,47,0,0,1,52.7,73Z" transform="translate(-3.33 -61.73)" style="fill:#5c5d5f;stroke:#5c5d5f;stroke-miterlimit:10;stroke-width:3px"/>
    <path d="M29.55,137.15s1.32,8.68.79,11.83c-2.45,8-.08,15.78,2.33,20.9a1.88,1.88,0,0,0,3.57-.77,79.88,79.88,0,0,1,.94-11.71c1-3.68,5.79-11.05,5.79-11.05s6.26-7,5.49-15.87c0,0-1.28-1.49-3.79-5s-4.86-12.3-4.86-12.3c-1.05-3.68.53-5.26,2.63-14.73C43.49,89,52.7,86.14,52.7,86.14a18.8,18.8,0,0,1,6.24,0C64,88,67.69,94.8,70.85,102.69c0,0,.52,7.36-1,12.63s-3.44,10.44-3.44,10.44l2.38,2.71,5.79,15.78.63,1.42" transform="translate(-3.33 -61.73)" style="fill:#5c5d5f;stroke:#5c5d5f;stroke-miterlimit:10;stroke-width:2px"/>
    <line x1="76.2" y1="73.31" x2="77.09" y2="81.99" style="fill:#5c5d5f;stroke:#5c5d5f;stroke-miterlimit:10;stroke-width:3px"/>
    <path d="M172.5,142.67S176.33,134,179,128.2s2.63-12.62,3.15-14.2c-1.05-10-.52-13.15-.52-14.2a27,27,0,0,1,.63-8.31c.23-1,.42-1.69.42-1.69C190,72.44,202.1,76.65,202.1,76.65s15-3.42,20.78,18.67c1.58,8.42,5.26,21.8,0,43.52,0,.3,13.16,5.94,13.16,5.94s9.46-1.58,8.94,7.36-1.58,24.73-2.63,27.36c0,.52-54.47,0-54.47,0v-1" transform="translate(-3.33 -61.73)" style="fill:#5c5d5f;stroke:#5c5d5f;stroke-miterlimit:10;stroke-width:3px"/>
    <path d="M181.81,115.74c0,1,4.77,9.57,4.77,9.57l4.21,7.37s-2.55,15.85-9.16,20" transform="translate(-3.33 -61.73)" style="fill:#5c5d5f;stroke:#5c5d5f;stroke-miterlimit:10;stroke-width:3px"/>
    <path d="M222.88,138.84s-5.12,11.93-8.79,18.31a1.77,1.77,0,0,1-.38.44c-3,2.63-4.93,9.94-5.88,14.62a1.84,1.84,0,0,1-3.28.73l-.6-.81c-2.71-3.61-2.71-8.77-2.66-10.16a1.92,1.92,0,0,1,.15-.66c1-2.25,7.25-16.68,7.31-18.42s.44-12,1-15.83a1.47,1.47,0,0,1,.08-.35c1.57-4.68,3.6-9.73,4.71-11,9.73-11.26,4.62-14.64,2.11-15.1a1.64,1.64,0,0,0-1,.09,3.1,3.1,0,0,0-.82.59,1.83,1.83,0,0,1-3-.86A57.65,57.65,0,0,0,209.37,93a1.82,1.82,0,0,0-.44-.59c-2.92-2.58-11.3-5.53-11.3-5.53s-11.08-4.7-15.27,4" transform="translate(-3.33 -61.73)" style="fill:#5c5d5f;stroke:#5c5d5f;stroke-miterlimit:10;stroke-width:2px"/>
    <path d="M52.7,73S38,73,32.71,93.48C29.55,103,28.5,106.64,28,108.74s-1.57,14.73,1.58,28.41c-3.68,1-11,1.58-16.83,12.62A163.89,163.89,0,0,0,6.4,169.24s-1.57,6.84-1.57,8.94h56s-.15-18.63,9-28.14c7.09-7.4,19.91-9.58,20.4-9.86,1.17-.67-2.1-1.88-3.31-2.51-4.73-1.57-7.36-2.63-7.36-2.63s1-30.51-2.63-37.87c-2.63-7.37-5.26-16.31-10.52-22.1-2.63-1.58-4.1-2.63-7.57-2.1A47,47,0,0,1,52.7,73Z" transform="translate(-3.33 -61.73)" style="fill:#5c5d5f;stroke:#fff;stroke-miterlimit:10"/>
    <path d="M29.55,137.15s1.32,8.68.79,11.83c-2.45,8-.08,15.78,2.33,20.9a1.88,1.88,0,0,0,3.57-.77,79.88,79.88,0,0,1,.94-11.71c1-3.68,5.79-11.05,5.79-11.05s6.26-7,5.49-15.87c0,0-1.28-1.49-3.79-5s-4.86-12.3-4.86-12.3c-1.05-3.68.53-5.26,2.63-14.73C43.49,89,52.7,86.14,52.7,86.14a18.8,18.8,0,0,1,6.24,0C64,88,67.69,94.8,70.85,102.69c0,0,.52,7.36-1,12.63s-3.44,10.44-3.44,10.44l2.38,2.71,5.79,15.78.63,1.42" transform="translate(-3.33 -61.73)" style="fill:#5c5d5f;stroke:#fff;stroke-miterlimit:10;stroke-width:0.5px"/>
    <line x1="76.2" y1="73.31" x2="77.09" y2="81.99" style="fill:#5c5d5f;stroke:#fff;stroke-miterlimit:10;stroke-width:0.5px"/>
    <path d="M172.5,142.67S176.33,134,179,128.2s2.63-12.62,3.15-14.2c-1.05-10-.52-13.15-.52-14.2a27,27,0,0,1,.63-8.31c.23-1,.42-1.69.42-1.69C190,72.44,202.1,76.65,202.1,76.65s15-3.42,20.78,18.67c1.58,8.42,5.26,21.8,0,43.52,0,.3,13.16,5.94,13.16,5.94s9.46-1.58,8.94,7.36-1.58,24.73-2.63,27.36c0,.52-54.47,0-54.47,0v-1" transform="translate(-3.33 -61.73)" style="fill:#5c5d5f;stroke:#fff;stroke-miterlimit:10"/>
    <path d="M181.81,117.68c0,.95,4.77,9.58,4.77,9.58l4.21,7.36s-2.55,15.86-9.16,20" transform="translate(-3.33 -61.73)" style="fill:#5c5d5f;stroke:#fff;stroke-miterlimit:10;stroke-width:0.5px"/>
    <path d="M123.46,63.23s10.52,0,16.83,7.9c3.68,7.36,4.73,6.31,3.16,21,0,0,3.15,1.58,1.57,9.47-.52,2.1-1.05,5.78-4.2,5.78,0,0-2.11,6.32-3.16,8.42v10.52a9.44,9.44,0,0,1,3.68,4.74c2.11,1.05,20.52,6.84,20.52,6.84s28.93,4.21,25.78,47.87H61.2s-5.08-39.46,22.27-42.61C93.47,139,105,132.68,105,132.68s-.52-1.06,2.11-4.21V118A64.57,64.57,0,0,1,105,107.42s-4.21-1-4.73-8.41c0-1.58-1-6.32,2.63-7.37C102.94,89,99.78,64.29,123.46,63.23Z" transform="translate(-3.33 -61.73)" style="fill:#5c5d5f;stroke:#fff;stroke-miterlimit:10"/>
    <path d="M222.88,138.84s-5.12,11.93-8.79,18.31a1.77,1.77,0,0,1-.38.44c-3,2.63-4.93,9.94-5.88,14.62a1.84,1.84,0,0,1-3.28.73l-.6-.81c-2.71-3.61-2.71-8.77-2.66-10.16a1.92,1.92,0,0,1,.15-.66c1-2.25,7.25-16.68,7.31-18.42s.44-12,1-15.83a1.47,1.47,0,0,1,.08-.35c1.57-4.68,3.6-9.73,4.71-11,9.73-11.26,4.62-14.64,2.11-15.1a1.64,1.64,0,0,0-1,.09,3.1,3.1,0,0,0-.82.59,1.83,1.83,0,0,1-3-.86A57.65,57.65,0,0,0,209.37,93a1.82,1.82,0,0,0-.44-.59c-2.92-2.58-11.3-5.53-11.3-5.53s-11.08-4.7-15.27,4" transform="translate(-3.33 -61.73)" style="fill:#5c5d5f;stroke:#fff;stroke-miterlimit:10;stroke-width:0.5px"/>
</svg>