<svg id="Layer_1" data-name="Layer 1" xmlns="http://www.w3.org/2000/svg" viewBox="0 0 240.17 147.63"><path id="path48" d="M19,111.3,47.21,61.52C56,46.38,74.12,48.74,79.84,65.89l.67,1.68h0c-2.35,4-7.06,4.37-9.75.67h0c-2-2.69-5.72-2.35-7.4.68L40.49,108.27,19,111.3" transform="translate(-4.83 -51.46)" style="fill:#5c5d5f"/><path id="path50" d="M230.53,111.3,202.28,61.52c-8.75-15.14-26.91-12.78-32.63,4.37L169,67.57h0c2.35,4,7.06,4.37,9.75.67h0c2-2.69,5.72-2.35,7.4.68L209,108.27l21.53,3" transform="translate(-4.83 -51.46)" style="fill:#5c5d5f"/><path id="path52" d="M198.24,176.89a22.86,22.86,0,0,1-16.48,6.73,23.31,23.31,0,0,1-16.48-39.69,22.82,22.82,0,0,1,16.48-6.73A23.26,23.26,0,0,1,205,160.41,21.61,21.61,0,0,1,198.24,176.89ZM67.39,184v0a23.45,23.45,0,0,1-16.48-6.72,22.87,22.87,0,0,1-6.72-16.48,23.31,23.31,0,0,1,39.69-16.49,22.88,22.88,0,0,1,6.72,16.49A23.24,23.24,0,0,1,67.39,184ZM245,137.54s-.34-14.13,0-14.13H212.37a47,47,0,0,0-64.58,5.38l-8.08-8.07H110.79l-8.41,8.41a38.88,38.88,0,0,0-7.74-7.07,47,47,0,0,0-57.18,1.35H4.83c.34,0,0,14.13,0,14.13l16.82,9.08a47.85,47.85,0,0,0,17.83,52.47L45.87,190a36.45,36.45,0,0,0,21.86,7.4h0a37.61,37.61,0,0,0,29.6-14.8l8.41,6a48.39,48.39,0,0,0,7.74-38l7.06-7.06h10.09L137,150a47.55,47.55,0,0,0,7.74,38.68l8.41-6a36.63,36.63,0,0,0,29.6,14.8h0a36.45,36.45,0,0,0,21.86-7.4l6.39,9.08a46.9,46.9,0,0,0,19.18-30.94,46.31,46.31,0,0,0-1.35-21.53L245,137.54" transform="translate(-4.83 -51.46)" style="fill:#5c5d5f"/></svg>