<svg version="1.0" viewBox="0 0 512.000000 512.000000" preserveAspectRatio="xMidYMid meet" xmlns="http://www.w3.org/2000/svg">
  <g transform="translate(0.000000,512.000000) scale(0.100000,-0.100000)" fill="#000000" stroke="none">
    <path d="M2203 4830 c-70 -10 -187 -47 -248 -77 -207 -104 -348 -284 -433 -553 -27 -84 -27 -87 -27 -388 l0 -302 -31 -19 c-101 -62 -119 -190 -46 -344 35 -75 312 -513 388 -614 30 -40 54 -77 54 -83 0 -7 -23 -67 -51 -136 -57 -138 -72 -155 -172 -203 -102 -48 -228 -85 -528 -156 -323 -76 -444 -116 -534 -175 -134 -87 -273 -274 -319 -430 -31 -105 -48 -244 -36 -292 19 -70 55 -117 113 -144 l52 -24 1221 0 1222 0 47 -84 c97 -174 274 -339 460 -431 305 -150 666 -150 970 1 110 55 186 110 288 211 321 317 406 810 212 1220 -59 126 -106 193 -203 295 -182 189 -407 299 -676 329 -273 31 -569 -56 -787 -231 -34 -28 -65 -50 -69 -50 -16 0 -89 80 -144 158 l-58 82 52 57 c65 71 119 151 288 427 144 236 182 310 202 394 23 98 -5 185 -68 211 l-28 12 4 277 c4 259 3 283 -17 362 -64 255 -242 467 -501 597 -180 91 -409 130 -597 103z m251 -266 c13 -5 16 -23 16 -90 l0 -84 84 0 c67 0 85 -3 90 -16 11 -28 6 -120 -6 -132 -7 -7 -43 -12 -90 -12 l-78 0 0 -84 c0 -67 -3 -85 -16 -90 -28 -11 -120 -6 -132 6 -7 7 -12 43 -12 90 l0 78 -78 0 c-47 0 -83 5 -90 12 -7 7 -12 37 -12 68 0 31 5 61 12 68 7 7 43 12 90 12 l78 0 0 78 c0 47 5 83 12 90 12 12 104 17 132 6z m136 -680 c176 -31 358 -108 452 -193 48 -43 98 -125 98 -163 0 -9 9 -41 21 -71 l21 -55 54 -4 c30 -3 60 -10 67 -17 18 -18 11 -92 -15 -158 -27 -65 -249 -435 -336 -558 -72 -101 -231 -260 -303 -303 -228 -134 -447 -89 -668 137 -42 43 -101 114 -133 157 -93 130 -320 495 -345 554 -31 76 -31 149 1 179 26 24 80 40 137 41 36 0 36 0 42 53 15 124 119 264 246 331 173 90 403 115 661 70z m-602 -1548 c79 -60 136 -91 216 -115 188 -58 404 -24 572 88 l30 21 88 -117 87 -116 -23 -45 c-13 -26 -59 -83 -103 -127 -132 -134 -263 -188 -455 -189 -121 0 -209 22 -325 82 -83 44 -207 162 -247 238 l-27 51 33 64 c19 35 46 97 62 137 15 39 30 72 32 72 2 0 29 -20 60 -44z m1949 -97 c302 -41 578 -246 703 -522 55 -122 74 -217 73 -372 0 -166 -19 -250 -88 -390 -113 -231 -328 -407 -582 -477 -63 -17 -106 -21 -228 -21 -134 0 -159 2 -238 26 -416 127 -674 485 -654 907 7 143 25 217 88 347 169 352 543 555 926 502z"/>
    <path d="M1979 3581 c-45 -9 -109 -42 -123 -64 -8 -12 -7 -21 6 -33 15 -15 20 -15 69 10 68 34 119 34 187 -1 52 -26 55 -27 68 -9 19 27 3 50 -53 73 -60 25 -107 33 -154 24z"/>
    <path d="M2729 3581 c-45 -9 -109 -42 -123 -64 -8 -12 -7 -21 6 -33 15 -15 20 -15 69 10 68 34 119 34 187 -1 52 -26 55 -27 68 -9 19 27 3 50 -53 73 -60 25 -107 33 -154 24z"/>
    <path d="M2816 3374 c-21 -12 -44 -15 -85 -10 -118 13 -116 13 -119 -11 -5 -32 47 -55 122 -56 107 -1 179 39 140 77 -19 19 -21 19 -58 0z"/>
    <path d="M1914 3365 c-11 -28 9 -49 62 -63 61 -16 139 -8 183 19 44 27 39 55 -9 51 -81 -7 -167 -6 -197 2 -27 7 -34 5 -39 -9z"/>
    <path d="M2173 2754 c-7 -3 -13 -16 -13 -29 0 -20 8 -27 43 -37 57 -17 318 -17 375 0 38 12 43 16 40 40 -3 31 -1 30 -138 15 -77 -9 -168 -5 -260 10 -19 3 -41 4 -47 1z"/>
    <path d="M3700 1735 c-124 -35 -250 -112 -335 -207 -50 -55 -135 -179 -135 -196 0 -26 109 -168 179 -235 129 -121 274 -181 436 -181 162 0 307 60 436 181 73 69 179 209 179 236 0 25 -96 155 -165 222 -80 78 -153 126 -253 163 -86 32 -257 40 -342 17z m334 -123 c106 -50 214 -147 276 -249 l19 -32 -50 -70 c-125 -178 -318 -272 -501 -242 -142 22 -289 122 -381 260 l-36 54 39 56 c57 85 159 175 242 215 91 43 100 45 223 42 90 -1 107 -5 169 -34z"/>
    <path d="M3766 1515 c-46 -16 -99 -65 -122 -113 -26 -55 -16 -150 22 -204 104 -150 357 -96 381 80 l6 42 -44 -6 c-101 -12 -171 76 -145 184 7 31 7 32 -26 32 -18 -1 -50 -7 -72 -15z"/>
  </g>
</svg>