<svg version="1.0" viewBox="0 0 512.000000 512.000000" preserveAspectRatio="xMidYMid meet" xmlns="http://www.w3.org/2000/svg">
  <g transform="translate(0.000000,512.000000) scale(0.100000,-0.100000)" fill="#000000" stroke="none">
    <path d="M2353 5110 c-464 -45 -874 -231 -1200 -544 -90 -85 -101 -112 -65 -157 35 -42 71 -31 164 52 161 144 281 227 456 314 84 42 295 125 318 125 2 0 4 -121 4 -269 l0 -268 -76 -34 c-196 -85 -436 -288 -556 -469 -107 -162 -185 -349 -224 -535 -27 -128 -27 -453 0 -574 68 -313 230 -588 455 -776 68 -57 71 -61 71 -102 0 -128 85 -202 242 -211 l88 -5 0 -233 0 -233 -52 16 c-579 170 -1044 633 -1243 1238 -135 407 -136 823 -5 1218 47 139 122 297 198 411 67 102 73 126 39 160 -53 53 -89 34 -163 -87 -161 -259 -272 -576 -303 -869 -7 -63 -11 -576 -11 -1473 l0 -1375 -57 0 c-71 0 -135 -29 -163 -74 -17 -28 -20 -50 -20 -137 0 -125 15 -162 80 -196 l43 -23 2187 0 2187 0 43 23 c65 34 80 71 80 192 0 79 -4 108 -19 135 -26 49 -89 80 -163 80 l-58 0 0 1389 c0 1522 0 1508 -60 1746 -163 647 -642 1170 -1295 1415 -280 106 -644 157 -922 130z m472 -155 c55 -8 103 -15 108 -15 4 0 7 -119 7 -264 l0 -265 -27 9 c-155 52 -551 52 -705 0 l-28 -9 0 263 0 263 73 12 c39 6 83 13 97 15 70 10 385 4 475 -9z m405 -102 c640 -237 1115 -809 1229 -1481 115 -677 -134 -1364 -652 -1799 -195 -163 -470 -313 -681 -371 l-36 -10 0 232 0 233 88 5 c157 9 242 83 242 211 0 41 3 45 71 102 225 187 387 463 455 776 27 119 27 447 1 569 -62 292 -189 531 -387 731 -116 117 -265 222 -394 278 l-76 34 0 269 0 269 23 -6 c12 -4 65 -23 117 -42z m-742 -615 l-3 -83 -60 -7 c-192 -23 -383 -102 -541 -222 l-59 -45 -52 52 c-29 28 -53 56 -53 62 0 16 124 108 216 160 130 75 297 132 449 154 115 17 106 23 103 -71z m327 55 c107 -21 231 -65 336 -120 95 -50 249 -160 249 -177 0 -7 -24 -35 -52 -63 l-53 -52 -25 20 c-161 128 -356 215 -550 243 l-85 12 -3 83 -3 83 53 -7 c29 -3 89 -13 133 -22z m-68 -299 c199 -41 333 -114 483 -264 126 -126 191 -229 243 -387 69 -210 70 -406 3 -606 -19 -53 -55 -134 -82 -178 l-49 -81 -6 69 c-6 76 -27 124 -72 157 -28 21 -33 21 -707 21 -674 0 -679 0 -707 -21 -45 -33 -66 -81 -72 -157 l-6 -69 -49 81 c-227 377 -154 870 176 1187 136 130 283 209 464 248 93 20 286 20 381 0z m-1078 -158 c34 -34 51 -59 46 -66 -4 -7 -29 -40 -54 -74 -94 -124 -166 -297 -195 -465 -9 -52 -16 -98 -16 -103 0 -4 -36 -8 -80 -8 l-80 0 0 29 c0 108 61 324 131 463 55 109 169 277 189 278 3 0 30 -24 59 -54z m1877 16 c90 -109 176 -267 224 -410 29 -87 60 -238 60 -293 l0 -29 -79 0 -80 0 -6 48 c-28 203 -113 416 -219 547 -53 65 -53 62 5 121 29 30 56 54 59 54 3 0 19 -17 36 -38z m-2096 -890 c0 -5 7 -51 16 -103 33 -194 118 -378 239 -522 l32 -38 -18 -36 c-12 -23 -19 -58 -19 -90 0 -29 -4 -53 -9 -53 -16 0 -130 132 -186 215 -66 99 -114 196 -150 299 -28 83 -65 256 -65 306 l0 30 80 0 c44 0 80 -4 80 -8z m2380 -22 c0 -50 -37 -223 -65 -306 -36 -103 -84 -200 -150 -299 -56 -83 -170 -215 -186 -215 -5 0 -9 24 -9 53 0 30 -8 67 -18 87 l-17 35 50 68 c130 172 196 334 230 570 l6 37 79 0 80 0 0 -30z m-642 -457 l3 -103 -631 0 -630 0 0 98 c0 54 3 102 7 105 3 4 286 6 627 5 l621 -3 3 -102z m-2350 -590 c257 -380 644 -675 1069 -813 l118 -39 3 -180 2 -181 -82 0 c-98 0 -152 -21 -191 -71 -28 -38 -47 -97 -47 -146 l0 -33 -540 0 -540 0 0 923 0 922 73 -145 c40 -80 100 -187 135 -237z m3652 -543 l0 -920 -540 0 -540 0 0 33 c0 49 -19 108 -47 146 -39 50 -93 71 -191 71 l-82 0 2 181 3 180 118 39 c522 170 971 564 1211 1062 33 70 62 128 64 128 1 0 2 -414 2 -920z m-1235 865 c24 -24 25 -27 25 -185 0 -156 -6 -194 -34 -212 -14 -10 -1358 -10 -1372 0 -28 18 -34 56 -34 212 0 158 1 161 25 185 l24 25 671 0 671 0 24 -25z m-315 -1045 l0 -490 -130 0 c-117 0 -132 -2 -150 -20 -28 -28 -27 -84 2 -104 19 -14 64 -16 292 -16 237 0 272 -2 288 -17 16 -14 18 -34 18 -195 l0 -178 -700 0 -700 0 0 177 c0 150 2 179 17 195 15 16 37 18 265 18 235 0 249 1 268 20 26 26 25 68 -2 97 -20 21 -30 23 -125 23 l-103 0 0 490 0 490 380 0 380 0 0 -490z m-1230 -955 l0 -65 -660 0 -660 0 0 65 0 65 660 0 660 0 0 -65z m3020 0 l0 -65 -660 0 -660 0 0 65 0 65 660 0 660 0 0 -65z"/>
    <path d="M4213 3348 c-39 -19 -55 -101 -32 -166 19 -56 101 -64 128 -13 18 33 14 136 -6 159 -22 26 -61 35 -90 20z"/>
    <path d="M4200 2942 c-27 -22 -38 -123 -18 -162 19 -36 54 -50 90 -38 36 13 48 42 48 114 0 45 -4 59 -25 79 -28 29 -64 32 -95 7z"/>
    <path d="M4090 1180 c-94 -17 -160 -88 -176 -189 -16 -102 61 -216 164 -241 114 -27 228 32 262 136 7 20 10 65 8 100 -3 50 -10 72 -34 106 -47 67 -140 104 -224 88z m95 -165 c49 -48 17 -125 -52 -125 -66 0 -98 77 -51 127 29 31 72 30 103 -2z"/>
  </g>
</svg>