<svg id="Layer_1" data-name="Layer 1" xmlns="http://www.w3.org/2000/svg" viewBox="0 0 242.19 154.97"><path id="path32" d="M245.67,131.5c-1.38-6.57-5.18-11.4-11-12.79-6.22-1.72-28.33-4.14-48.37-4.14-15.89,0-26.95,1.38-33.51,4.49-6.91,3.11-16.93,4.84-27.64,4.84s-21.07-1.73-28-4.84c-6.57-3.11-17.62-4.49-33.51-4.49-20,0-42.15,2.42-48.37,4.14-5.87,1.39-9.67,6.22-11.06,12.79-1,6.22,0,14.51,4.49,18.65.7,1.38,1.39,5.18,1.73,7.6,1.73,8.29,3.8,20,10,28.68,6.56,9,18,13.13,35.59,13.13a165,165,0,0,0,20.38-1.39c19.69-2.41,34.89-21.76,38-29.36a29.52,29.52,0,0,0,2.07-7.95c.35-1.38.7-3.11,1-4.49h13.82a28.38,28.38,0,0,1,1.38,5.18c.69,2.42,1.38,4.84,2.07,6.91,3.11,7.6,18.31,27.3,38,29.71a171,171,0,0,0,20.73,1.39c17.62,0,29-4.15,35.58-13.13,6.22-8.64,8.64-20.39,10-28.68a30.93,30.93,0,0,1,1.73-7.6c4.49-4.14,5.87-12.43,4.83-18.65" transform="translate(-3.81 -44.59)" style="fill:#5c5d5f"/><path id="path34" d="M233.58,105.24l-37-50.44c-11.41-15.55-34.9-12.78-42.84,4.49l-.7,1.73h0a8.36,8.36,0,0,0,12.79.69h0c2.76-2.76,7.6-2.42,9.67.69l29.71,40.08,28.33,2.76" transform="translate(-3.81 -44.59)" style="fill:#5c5d5f"/><path id="path36" d="M15.93,105.24l37-50.44C64.3,39.25,87.79,42,95.74,59.29L96.43,61h0a8.36,8.36,0,0,1-12.79.69h0C80.88,59,76,59.29,74,62.4L44.26,102.48l-28.33,2.76" transform="translate(-3.81 -44.59)" style="fill:#5c5d5f"/></svg>